<mxfile host="65bd71144e" modified="2020-11-08T08:07:34.724Z" agent="5.0 (Windows NT 10.0; Win64; x64) AppleWebKit/537.36 (KHTML, like Gecko) Code/1.48.2 Chrome/78.0.3904.130 Electron/7.3.2 Safari/537.36" etag="asoTaTNTIxn4eJumEVGT" version="13.6.5">
    <diagram id="YvBQOzsvxOFlreOWt71U" name="Page-1">
        <mxGraphModel dx="745" dy="577" grid="1" gridSize="10" guides="1" tooltips="1" connect="1" arrows="1" fold="1" page="1" pageScale="1" pageWidth="827" pageHeight="1169" math="0" shadow="1">
            <root>
                <mxCell id="0"/>
                <mxCell id="1" parent="0"/>
                <mxCell id="n6aOTrb65r66QteSUWzc-81" value="" style="edgeStyle=orthogonalEdgeStyle;rounded=0;orthogonalLoop=1;jettySize=auto;html=1;" parent="1" source="n6aOTrb65r66QteSUWzc-1" target="n6aOTrb65r66QteSUWzc-2" edge="1">
                    <mxGeometry relative="1" as="geometry">
                        <Array as="points">
                            <mxPoint x="140" y="90"/>
                            <mxPoint x="140" y="90"/>
                        </Array>
                    </mxGeometry>
                </mxCell>
                <mxCell id="n6aOTrb65r66QteSUWzc-1" value="&lt;div&gt;Head&lt;/div&gt;" style="whiteSpace=wrap;html=1;aspect=fixed;fillColor=#d5e8d4;strokeColor=#82b366;" parent="1" vertex="1">
                    <mxGeometry x="80" y="80" width="40" height="40" as="geometry"/>
                </mxCell>
                <mxCell id="n6aOTrb65r66QteSUWzc-82" value="" style="edgeStyle=orthogonalEdgeStyle;rounded=0;orthogonalLoop=1;jettySize=auto;html=1;" parent="1" source="n6aOTrb65r66QteSUWzc-2" target="n6aOTrb65r66QteSUWzc-1" edge="1">
                    <mxGeometry relative="1" as="geometry">
                        <Array as="points">
                            <mxPoint x="140" y="110"/>
                            <mxPoint x="140" y="110"/>
                        </Array>
                    </mxGeometry>
                </mxCell>
                <mxCell id="n6aOTrb65r66QteSUWzc-83" value="" style="edgeStyle=orthogonalEdgeStyle;rounded=0;orthogonalLoop=1;jettySize=auto;html=1;fillColor=#f5f5f5;strokeColor=#666666;" parent="1" source="n6aOTrb65r66QteSUWzc-2" target="n6aOTrb65r66QteSUWzc-4" edge="1">
                    <mxGeometry relative="1" as="geometry">
                        <Array as="points">
                            <mxPoint x="220" y="90"/>
                            <mxPoint x="220" y="90"/>
                        </Array>
                    </mxGeometry>
                </mxCell>
                <mxCell id="n6aOTrb65r66QteSUWzc-2" value="" style="whiteSpace=wrap;html=1;aspect=fixed;fillColor=#f5f5f5;strokeColor=#666666;fontColor=#333333;" parent="1" vertex="1">
                    <mxGeometry x="160" y="80" width="40" height="40" as="geometry"/>
                </mxCell>
                <mxCell id="n6aOTrb65r66QteSUWzc-85" value="" style="edgeStyle=orthogonalEdgeStyle;rounded=0;orthogonalLoop=1;jettySize=auto;html=1;fillColor=#f5f5f5;strokeColor=#666666;" parent="1" source="n6aOTrb65r66QteSUWzc-4" target="n6aOTrb65r66QteSUWzc-2" edge="1">
                    <mxGeometry relative="1" as="geometry">
                        <Array as="points">
                            <mxPoint x="220" y="110"/>
                            <mxPoint x="220" y="110"/>
                        </Array>
                    </mxGeometry>
                </mxCell>
                <mxCell id="n6aOTrb65r66QteSUWzc-86" value="" style="edgeStyle=orthogonalEdgeStyle;rounded=0;orthogonalLoop=1;jettySize=auto;html=1;fillColor=#f5f5f5;strokeColor=#666666;" parent="1" source="n6aOTrb65r66QteSUWzc-4" target="n6aOTrb65r66QteSUWzc-5" edge="1">
                    <mxGeometry relative="1" as="geometry">
                        <Array as="points">
                            <mxPoint x="300" y="90"/>
                            <mxPoint x="300" y="90"/>
                        </Array>
                    </mxGeometry>
                </mxCell>
                <mxCell id="n6aOTrb65r66QteSUWzc-4" value="" style="whiteSpace=wrap;html=1;aspect=fixed;fillColor=#f5f5f5;strokeColor=#666666;fontColor=#333333;" parent="1" vertex="1">
                    <mxGeometry x="240" y="80" width="40" height="40" as="geometry"/>
                </mxCell>
                <mxCell id="n6aOTrb65r66QteSUWzc-87" value="" style="edgeStyle=orthogonalEdgeStyle;rounded=0;orthogonalLoop=1;jettySize=auto;html=1;fillColor=#f5f5f5;strokeColor=#666666;" parent="1" source="n6aOTrb65r66QteSUWzc-5" target="n6aOTrb65r66QteSUWzc-4" edge="1">
                    <mxGeometry relative="1" as="geometry">
                        <Array as="points">
                            <mxPoint x="300" y="110"/>
                            <mxPoint x="300" y="110"/>
                        </Array>
                    </mxGeometry>
                </mxCell>
                <mxCell id="n6aOTrb65r66QteSUWzc-88" value="" style="edgeStyle=orthogonalEdgeStyle;rounded=0;orthogonalLoop=1;jettySize=auto;html=1;fillColor=#f5f5f5;strokeColor=#666666;" parent="1" source="n6aOTrb65r66QteSUWzc-5" target="n6aOTrb65r66QteSUWzc-6" edge="1">
                    <mxGeometry relative="1" as="geometry">
                        <Array as="points">
                            <mxPoint x="380" y="90"/>
                            <mxPoint x="380" y="90"/>
                        </Array>
                    </mxGeometry>
                </mxCell>
                <mxCell id="n6aOTrb65r66QteSUWzc-5" value="" style="whiteSpace=wrap;html=1;aspect=fixed;fillColor=#f5f5f5;strokeColor=#666666;fontColor=#333333;" parent="1" vertex="1">
                    <mxGeometry x="320" y="80" width="40" height="40" as="geometry"/>
                </mxCell>
                <mxCell id="n6aOTrb65r66QteSUWzc-89" value="" style="edgeStyle=orthogonalEdgeStyle;rounded=0;orthogonalLoop=1;jettySize=auto;html=1;fillColor=#f5f5f5;strokeColor=#666666;" parent="1" source="n6aOTrb65r66QteSUWzc-6" target="n6aOTrb65r66QteSUWzc-5" edge="1">
                    <mxGeometry relative="1" as="geometry">
                        <Array as="points">
                            <mxPoint x="380" y="110"/>
                            <mxPoint x="380" y="110"/>
                        </Array>
                    </mxGeometry>
                </mxCell>
                <mxCell id="n6aOTrb65r66QteSUWzc-90" value="" style="edgeStyle=orthogonalEdgeStyle;rounded=0;orthogonalLoop=1;jettySize=auto;html=1;fillColor=#f5f5f5;strokeColor=#666666;" parent="1" source="n6aOTrb65r66QteSUWzc-6" target="n6aOTrb65r66QteSUWzc-7" edge="1">
                    <mxGeometry relative="1" as="geometry">
                        <Array as="points">
                            <mxPoint x="460" y="90"/>
                            <mxPoint x="460" y="90"/>
                        </Array>
                    </mxGeometry>
                </mxCell>
                <mxCell id="n6aOTrb65r66QteSUWzc-6" value="" style="whiteSpace=wrap;html=1;aspect=fixed;fillColor=#f5f5f5;strokeColor=#666666;fontColor=#333333;" parent="1" vertex="1">
                    <mxGeometry x="400" y="80" width="40" height="40" as="geometry"/>
                </mxCell>
                <mxCell id="n6aOTrb65r66QteSUWzc-91" value="" style="edgeStyle=orthogonalEdgeStyle;rounded=0;orthogonalLoop=1;jettySize=auto;html=1;fillColor=#f5f5f5;strokeColor=#666666;" parent="1" source="n6aOTrb65r66QteSUWzc-7" target="n6aOTrb65r66QteSUWzc-6" edge="1">
                    <mxGeometry relative="1" as="geometry">
                        <Array as="points">
                            <mxPoint x="460" y="110"/>
                            <mxPoint x="460" y="110"/>
                        </Array>
                    </mxGeometry>
                </mxCell>
                <mxCell id="n6aOTrb65r66QteSUWzc-92" value="" style="edgeStyle=orthogonalEdgeStyle;rounded=0;orthogonalLoop=1;jettySize=auto;html=1;" parent="1" source="n6aOTrb65r66QteSUWzc-7" target="n6aOTrb65r66QteSUWzc-8" edge="1">
                    <mxGeometry relative="1" as="geometry">
                        <Array as="points">
                            <mxPoint x="540" y="90"/>
                            <mxPoint x="540" y="90"/>
                        </Array>
                    </mxGeometry>
                </mxCell>
                <mxCell id="n6aOTrb65r66QteSUWzc-7" value="Col 5" style="whiteSpace=wrap;html=1;aspect=fixed;fillColor=#f5f5f5;strokeColor=#666666;fontColor=#333333;" parent="1" vertex="1">
                    <mxGeometry x="480" y="80" width="40" height="40" as="geometry"/>
                </mxCell>
                <mxCell id="n6aOTrb65r66QteSUWzc-93" value="" style="edgeStyle=orthogonalEdgeStyle;rounded=0;orthogonalLoop=1;jettySize=auto;html=1;" parent="1" source="n6aOTrb65r66QteSUWzc-8" target="n6aOTrb65r66QteSUWzc-7" edge="1">
                    <mxGeometry relative="1" as="geometry">
                        <Array as="points">
                            <mxPoint x="540" y="110"/>
                            <mxPoint x="540" y="110"/>
                        </Array>
                    </mxGeometry>
                </mxCell>
                <mxCell id="n6aOTrb65r66QteSUWzc-94" value="" style="edgeStyle=orthogonalEdgeStyle;rounded=0;orthogonalLoop=1;jettySize=auto;html=1;" parent="1" source="n6aOTrb65r66QteSUWzc-8" target="n6aOTrb65r66QteSUWzc-9" edge="1">
                    <mxGeometry relative="1" as="geometry">
                        <Array as="points">
                            <mxPoint x="620" y="90"/>
                            <mxPoint x="620" y="90"/>
                        </Array>
                    </mxGeometry>
                </mxCell>
                <mxCell id="n6aOTrb65r66QteSUWzc-8" value="Col 6" style="whiteSpace=wrap;html=1;aspect=fixed;fillColor=#f8cecc;strokeColor=#b85450;" parent="1" vertex="1">
                    <mxGeometry x="560" y="80" width="40" height="40" as="geometry"/>
                </mxCell>
                <mxCell id="n6aOTrb65r66QteSUWzc-95" value="" style="edgeStyle=orthogonalEdgeStyle;rounded=0;orthogonalLoop=1;jettySize=auto;html=1;" parent="1" source="n6aOTrb65r66QteSUWzc-9" target="n6aOTrb65r66QteSUWzc-8" edge="1">
                    <mxGeometry relative="1" as="geometry">
                        <Array as="points">
                            <mxPoint x="620" y="110"/>
                            <mxPoint x="620" y="110"/>
                        </Array>
                    </mxGeometry>
                </mxCell>
                <mxCell id="n6aOTrb65r66QteSUWzc-96" value="" style="edgeStyle=orthogonalEdgeStyle;rounded=0;orthogonalLoop=1;jettySize=auto;html=1;fillColor=#f5f5f5;strokeColor=#666666;" parent="1" source="n6aOTrb65r66QteSUWzc-9" target="n6aOTrb65r66QteSUWzc-17" edge="1">
                    <mxGeometry relative="1" as="geometry">
                        <Array as="points">
                            <mxPoint x="670" y="140"/>
                            <mxPoint x="670" y="140"/>
                        </Array>
                    </mxGeometry>
                </mxCell>
                <mxCell id="n6aOTrb65r66QteSUWzc-9" value="Col 7" style="whiteSpace=wrap;html=1;aspect=fixed;fillColor=#f5f5f5;strokeColor=#666666;fontColor=#333333;" parent="1" vertex="1">
                    <mxGeometry x="640" y="80" width="40" height="40" as="geometry"/>
                </mxCell>
                <mxCell id="n6aOTrb65r66QteSUWzc-10" value="Row 1" style="whiteSpace=wrap;html=1;aspect=fixed;fillColor=#6a00ff;strokeColor=#3700CC;fontColor=#ffffff;" parent="1" vertex="1">
                    <mxGeometry x="80" y="160" width="40" height="40" as="geometry"/>
                </mxCell>
                <mxCell id="n6aOTrb65r66QteSUWzc-11" value="1" style="whiteSpace=wrap;html=1;aspect=fixed;fillColor=#f5f5f5;strokeColor=#666666;fontColor=#333333;" parent="1" vertex="1">
                    <mxGeometry x="160" y="160" width="40" height="40" as="geometry"/>
                </mxCell>
                <mxCell id="n6aOTrb65r66QteSUWzc-14" value="2" style="whiteSpace=wrap;html=1;aspect=fixed;fillColor=#f5f5f5;strokeColor=#666666;fontColor=#333333;" parent="1" vertex="1">
                    <mxGeometry x="400" y="160" width="40" height="40" as="geometry"/>
                </mxCell>
                <mxCell id="n6aOTrb65r66QteSUWzc-97" value="" style="edgeStyle=orthogonalEdgeStyle;rounded=0;orthogonalLoop=1;jettySize=auto;html=1;fillColor=#f5f5f5;strokeColor=#666666;" parent="1" source="n6aOTrb65r66QteSUWzc-17" target="n6aOTrb65r66QteSUWzc-9" edge="1">
                    <mxGeometry relative="1" as="geometry">
                        <Array as="points">
                            <mxPoint x="650" y="140"/>
                            <mxPoint x="650" y="140"/>
                        </Array>
                    </mxGeometry>
                </mxCell>
                <mxCell id="n6aOTrb65r66QteSUWzc-17" value="3" style="whiteSpace=wrap;html=1;aspect=fixed;fillColor=#f5f5f5;strokeColor=#666666;fontColor=#333333;" parent="1" vertex="1">
                    <mxGeometry x="640" y="160" width="40" height="40" as="geometry"/>
                </mxCell>
                <mxCell id="n6aOTrb65r66QteSUWzc-18" value="Row 2" style="whiteSpace=wrap;html=1;aspect=fixed;fillColor=#f5f5f5;strokeColor=#666666;fontColor=#333333;" parent="1" vertex="1">
                    <mxGeometry x="80" y="240" width="40" height="40" as="geometry"/>
                </mxCell>
                <mxCell id="n6aOTrb65r66QteSUWzc-21" value="4" style="whiteSpace=wrap;html=1;aspect=fixed;fillColor=#f5f5f5;strokeColor=#666666;fontColor=#333333;" parent="1" vertex="1">
                    <mxGeometry x="320" y="240" width="40" height="40" as="geometry"/>
                </mxCell>
                <mxCell id="n6aOTrb65r66QteSUWzc-23" value="5" style="whiteSpace=wrap;html=1;aspect=fixed;fillColor=#f5f5f5;strokeColor=#666666;fontColor=#333333;" parent="1" vertex="1">
                    <mxGeometry x="480" y="240" width="40" height="40" as="geometry"/>
                </mxCell>
                <mxCell id="n6aOTrb65r66QteSUWzc-24" value="6" style="whiteSpace=wrap;html=1;aspect=fixed;fillColor=#f5f5f5;strokeColor=#666666;fontColor=#333333;" parent="1" vertex="1">
                    <mxGeometry x="560" y="240" width="40" height="40" as="geometry"/>
                </mxCell>
                <mxCell id="n6aOTrb65r66QteSUWzc-26" value="Row 3" style="whiteSpace=wrap;html=1;aspect=fixed;fillColor=#f5f5f5;strokeColor=#666666;fontColor=#333333;" parent="1" vertex="1">
                    <mxGeometry x="80" y="320" width="40" height="40" as="geometry"/>
                </mxCell>
                <mxCell id="n6aOTrb65r66QteSUWzc-30" value="7" style="whiteSpace=wrap;html=1;aspect=fixed;fillColor=#f5f5f5;strokeColor=#666666;fontColor=#333333;" parent="1" vertex="1">
                    <mxGeometry x="400" y="320" width="40" height="40" as="geometry"/>
                </mxCell>
                <mxCell id="n6aOTrb65r66QteSUWzc-31" value="8" style="whiteSpace=wrap;html=1;aspect=fixed;fillColor=#f5f5f5;strokeColor=#666666;fontColor=#333333;" parent="1" vertex="1">
                    <mxGeometry x="480" y="320" width="40" height="40" as="geometry"/>
                </mxCell>
                <mxCell id="n6aOTrb65r66QteSUWzc-33" value="9" style="whiteSpace=wrap;html=1;aspect=fixed;fillColor=#f5f5f5;strokeColor=#666666;fontColor=#333333;" parent="1" vertex="1">
                    <mxGeometry x="640" y="320" width="40" height="40" as="geometry"/>
                </mxCell>
                <mxCell id="n6aOTrb65r66QteSUWzc-34" value="Row 4" style="whiteSpace=wrap;html=1;aspect=fixed;fillColor=#f5f5f5;strokeColor=#666666;fontColor=#333333;" parent="1" vertex="1">
                    <mxGeometry x="80" y="400" width="40" height="40" as="geometry"/>
                </mxCell>
                <mxCell id="n6aOTrb65r66QteSUWzc-36" value="10" style="whiteSpace=wrap;html=1;aspect=fixed;fillColor=#f5f5f5;strokeColor=#666666;fontColor=#333333;" parent="1" vertex="1">
                    <mxGeometry x="240" y="400" width="40" height="40" as="geometry"/>
                </mxCell>
                <mxCell id="n6aOTrb65r66QteSUWzc-41" value="11" style="whiteSpace=wrap;html=1;aspect=fixed;fillColor=#f5f5f5;strokeColor=#666666;fontColor=#333333;" parent="1" vertex="1">
                    <mxGeometry x="640" y="400" width="40" height="40" as="geometry"/>
                </mxCell>
                <mxCell id="n6aOTrb65r66QteSUWzc-42" value="Row 5" style="whiteSpace=wrap;html=1;aspect=fixed;fillColor=#f5f5f5;strokeColor=#666666;fontColor=#333333;" parent="1" vertex="1">
                    <mxGeometry x="80" y="480" width="40" height="40" as="geometry"/>
                </mxCell>
                <mxCell id="n6aOTrb65r66QteSUWzc-43" value="12" style="whiteSpace=wrap;html=1;aspect=fixed;fillColor=#f5f5f5;strokeColor=#666666;fontColor=#333333;" parent="1" vertex="1">
                    <mxGeometry x="160" y="480" width="40" height="40" as="geometry"/>
                </mxCell>
                <mxCell id="n6aOTrb65r66QteSUWzc-46" value="13" style="whiteSpace=wrap;html=1;aspect=fixed;fillColor=#f5f5f5;strokeColor=#666666;fontColor=#333333;" parent="1" vertex="1">
                    <mxGeometry x="400" y="480" width="40" height="40" as="geometry"/>
                </mxCell>
                <mxCell id="n6aOTrb65r66QteSUWzc-50" value="Row 6" style="whiteSpace=wrap;html=1;aspect=fixed;fillColor=#f5f5f5;strokeColor=#666666;fontColor=#333333;" parent="1" vertex="1">
                    <mxGeometry x="80" y="560" width="40" height="40" as="geometry"/>
                </mxCell>
                <mxCell id="n6aOTrb65r66QteSUWzc-53" value="14" style="whiteSpace=wrap;html=1;aspect=fixed;fillColor=#f5f5f5;strokeColor=#666666;fontColor=#333333;" parent="1" vertex="1">
                    <mxGeometry x="320" y="560" width="40" height="40" as="geometry"/>
                </mxCell>
                <mxCell id="n6aOTrb65r66QteSUWzc-56" value="15" style="whiteSpace=wrap;html=1;aspect=fixed;fillColor=#f5f5f5;strokeColor=#666666;fontColor=#333333;" parent="1" vertex="1">
                    <mxGeometry x="560" y="560" width="40" height="40" as="geometry"/>
                </mxCell>
                <mxCell id="n6aOTrb65r66QteSUWzc-58" value="Row 7" style="whiteSpace=wrap;html=1;aspect=fixed;fillColor=#6a00ff;strokeColor=#3700CC;fontColor=#ffffff;" parent="1" vertex="1">
                    <mxGeometry x="80" y="640" width="40" height="40" as="geometry"/>
                </mxCell>
                <mxCell id="n6aOTrb65r66QteSUWzc-60" value="16" style="whiteSpace=wrap;html=1;aspect=fixed;fillColor=#f5f5f5;strokeColor=#666666;fontColor=#333333;" parent="1" vertex="1">
                    <mxGeometry x="240" y="640" width="40" height="40" as="geometry"/>
                </mxCell>
                <mxCell id="n6aOTrb65r66QteSUWzc-61" value="17" style="whiteSpace=wrap;html=1;aspect=fixed;fillColor=#f5f5f5;strokeColor=#666666;fontColor=#333333;" parent="1" vertex="1">
                    <mxGeometry x="320" y="640" width="40" height="40" as="geometry"/>
                </mxCell>
                <mxCell id="n6aOTrb65r66QteSUWzc-63" value="18" style="whiteSpace=wrap;html=1;aspect=fixed;fillColor=#f5f5f5;strokeColor=#666666;fontColor=#333333;" parent="1" vertex="1">
                    <mxGeometry x="480" y="640" width="40" height="40" as="geometry"/>
                </mxCell>
                <mxCell id="n6aOTrb65r66QteSUWzc-66" value="Row 8" style="whiteSpace=wrap;html=1;aspect=fixed;fillColor=#f5f5f5;strokeColor=#666666;fontColor=#333333;" parent="1" vertex="1">
                    <mxGeometry x="80" y="720" width="40" height="40" as="geometry"/>
                </mxCell>
                <mxCell id="n6aOTrb65r66QteSUWzc-67" value="19" style="whiteSpace=wrap;html=1;aspect=fixed;fillColor=#f5f5f5;strokeColor=#666666;fontColor=#333333;" parent="1" vertex="1">
                    <mxGeometry x="160" y="720" width="40" height="40" as="geometry"/>
                </mxCell>
                <mxCell id="n6aOTrb65r66QteSUWzc-70" value="20" style="whiteSpace=wrap;html=1;aspect=fixed;fillColor=#f5f5f5;strokeColor=#666666;fontColor=#333333;" parent="1" vertex="1">
                    <mxGeometry x="400" y="720" width="40" height="40" as="geometry"/>
                </mxCell>
                <mxCell id="n6aOTrb65r66QteSUWzc-72" value="21" style="whiteSpace=wrap;html=1;aspect=fixed;fillColor=#f5f5f5;strokeColor=#666666;fontColor=#333333;" parent="1" vertex="1">
                    <mxGeometry x="560" y="720" width="40" height="40" as="geometry"/>
                </mxCell>
                <mxCell id="n6aOTrb65r66QteSUWzc-98" value="" style="endArrow=classic;html=1;exitX=0.75;exitY=1;exitDx=0;exitDy=0;entryX=0.75;entryY=0;entryDx=0;entryDy=0;fillColor=#f5f5f5;strokeColor=#666666;" parent="1" source="n6aOTrb65r66QteSUWzc-17" target="n6aOTrb65r66QteSUWzc-33" edge="1">
                    <mxGeometry width="50" height="50" relative="1" as="geometry">
                        <mxPoint x="330" y="230" as="sourcePoint"/>
                        <mxPoint x="380" y="180" as="targetPoint"/>
                    </mxGeometry>
                </mxCell>
                <mxCell id="n6aOTrb65r66QteSUWzc-99" value="" style="endArrow=classic;html=1;exitX=0.25;exitY=0;exitDx=0;exitDy=0;entryX=0.25;entryY=1;entryDx=0;entryDy=0;fillColor=#f5f5f5;strokeColor=#666666;" parent="1" source="n6aOTrb65r66QteSUWzc-33" target="n6aOTrb65r66QteSUWzc-17" edge="1">
                    <mxGeometry width="50" height="50" relative="1" as="geometry">
                        <mxPoint x="650" y="200" as="sourcePoint"/>
                        <mxPoint x="620" y="220" as="targetPoint"/>
                    </mxGeometry>
                </mxCell>
                <mxCell id="n6aOTrb65r66QteSUWzc-100" value="" style="endArrow=classic;html=1;exitX=0.75;exitY=1;exitDx=0;exitDy=0;entryX=0.75;entryY=0;entryDx=0;entryDy=0;" parent="1" edge="1">
                    <mxGeometry width="50" height="50" relative="1" as="geometry">
                        <mxPoint x="589.58" y="120" as="sourcePoint"/>
                        <mxPoint x="589.58" y="240" as="targetPoint"/>
                    </mxGeometry>
                </mxCell>
                <mxCell id="n6aOTrb65r66QteSUWzc-101" value="" style="endArrow=classic;html=1;exitX=0.25;exitY=0;exitDx=0;exitDy=0;entryX=0.25;entryY=1;entryDx=0;entryDy=0;" parent="1" edge="1">
                    <mxGeometry width="50" height="50" relative="1" as="geometry">
                        <mxPoint x="569.58" y="240" as="sourcePoint"/>
                        <mxPoint x="569.58" y="120" as="targetPoint"/>
                    </mxGeometry>
                </mxCell>
                <mxCell id="n6aOTrb65r66QteSUWzc-102" value="" style="endArrow=classic;html=1;exitX=0.75;exitY=1;exitDx=0;exitDy=0;entryX=0.75;entryY=0;entryDx=0;entryDy=0;fillColor=#f5f5f5;strokeColor=#666666;" parent="1" edge="1">
                    <mxGeometry width="50" height="50" relative="1" as="geometry">
                        <mxPoint x="509.58000000000004" y="120" as="sourcePoint"/>
                        <mxPoint x="509.58000000000004" y="240" as="targetPoint"/>
                    </mxGeometry>
                </mxCell>
                <mxCell id="n6aOTrb65r66QteSUWzc-103" value="" style="endArrow=classic;html=1;exitX=0.25;exitY=0;exitDx=0;exitDy=0;entryX=0.25;entryY=1;entryDx=0;entryDy=0;fillColor=#f5f5f5;strokeColor=#666666;" parent="1" edge="1">
                    <mxGeometry width="50" height="50" relative="1" as="geometry">
                        <mxPoint x="489.58000000000004" y="240" as="sourcePoint"/>
                        <mxPoint x="489.58000000000004" y="120" as="targetPoint"/>
                    </mxGeometry>
                </mxCell>
                <mxCell id="n6aOTrb65r66QteSUWzc-104" value="" style="endArrow=classic;html=1;exitX=0.75;exitY=1;exitDx=0;exitDy=0;entryX=0.75;entryY=0;entryDx=0;entryDy=0;fillColor=#f5f5f5;strokeColor=#666666;" parent="1" edge="1">
                    <mxGeometry width="50" height="50" relative="1" as="geometry">
                        <mxPoint x="429.58" y="200" as="sourcePoint"/>
                        <mxPoint x="429.58" y="320" as="targetPoint"/>
                    </mxGeometry>
                </mxCell>
                <mxCell id="n6aOTrb65r66QteSUWzc-105" value="" style="endArrow=classic;html=1;exitX=0.25;exitY=0;exitDx=0;exitDy=0;entryX=0.25;entryY=1;entryDx=0;entryDy=0;fillColor=#f5f5f5;strokeColor=#666666;" parent="1" edge="1">
                    <mxGeometry width="50" height="50" relative="1" as="geometry">
                        <mxPoint x="409.58" y="320" as="sourcePoint"/>
                        <mxPoint x="409.58" y="200" as="targetPoint"/>
                    </mxGeometry>
                </mxCell>
                <mxCell id="n6aOTrb65r66QteSUWzc-106" value="" style="endArrow=classic;html=1;exitX=0.75;exitY=1;exitDx=0;exitDy=0;entryX=0.75;entryY=0;entryDx=0;entryDy=0;fillColor=#f5f5f5;strokeColor=#666666;" parent="1" edge="1">
                    <mxGeometry width="50" height="50" relative="1" as="geometry">
                        <mxPoint x="429.58" y="360" as="sourcePoint"/>
                        <mxPoint x="429.58" y="480" as="targetPoint"/>
                    </mxGeometry>
                </mxCell>
                <mxCell id="n6aOTrb65r66QteSUWzc-107" value="" style="endArrow=classic;html=1;exitX=0.25;exitY=0;exitDx=0;exitDy=0;entryX=0.25;entryY=1;entryDx=0;entryDy=0;fillColor=#f5f5f5;strokeColor=#666666;" parent="1" edge="1">
                    <mxGeometry width="50" height="50" relative="1" as="geometry">
                        <mxPoint x="409.58" y="480" as="sourcePoint"/>
                        <mxPoint x="409.58" y="360" as="targetPoint"/>
                    </mxGeometry>
                </mxCell>
                <mxCell id="n6aOTrb65r66QteSUWzc-108" value="" style="endArrow=classic;html=1;exitX=0.75;exitY=1;exitDx=0;exitDy=0;entryX=0.75;entryY=0;entryDx=0;entryDy=0;fillColor=#f5f5f5;strokeColor=#666666;" parent="1" target="n6aOTrb65r66QteSUWzc-70" edge="1">
                    <mxGeometry width="50" height="50" relative="1" as="geometry">
                        <mxPoint x="429.58" y="520" as="sourcePoint"/>
                        <mxPoint x="429.58" y="640" as="targetPoint"/>
                    </mxGeometry>
                </mxCell>
                <mxCell id="n6aOTrb65r66QteSUWzc-109" value="" style="endArrow=classic;html=1;exitX=0.25;exitY=0;exitDx=0;exitDy=0;entryX=0.25;entryY=1;entryDx=0;entryDy=0;fillColor=#f5f5f5;strokeColor=#666666;" parent="1" source="n6aOTrb65r66QteSUWzc-70" edge="1">
                    <mxGeometry width="50" height="50" relative="1" as="geometry">
                        <mxPoint x="409.58" y="640" as="sourcePoint"/>
                        <mxPoint x="409.58" y="520" as="targetPoint"/>
                    </mxGeometry>
                </mxCell>
                <mxCell id="n6aOTrb65r66QteSUWzc-110" value="" style="endArrow=classic;html=1;exitX=0.75;exitY=1;exitDx=0;exitDy=0;entryX=0.75;entryY=0;entryDx=0;entryDy=0;fillColor=#f5f5f5;strokeColor=#666666;" parent="1" edge="1">
                    <mxGeometry width="50" height="50" relative="1" as="geometry">
                        <mxPoint x="189.57999999999993" y="520.0000000000001" as="sourcePoint"/>
                        <mxPoint x="190" y="720" as="targetPoint"/>
                    </mxGeometry>
                </mxCell>
                <mxCell id="n6aOTrb65r66QteSUWzc-111" value="" style="endArrow=classic;html=1;exitX=0.25;exitY=0;exitDx=0;exitDy=0;entryX=0.25;entryY=1;entryDx=0;entryDy=0;fillColor=#f5f5f5;strokeColor=#666666;" parent="1" edge="1">
                    <mxGeometry width="50" height="50" relative="1" as="geometry">
                        <mxPoint x="170" y="720" as="sourcePoint"/>
                        <mxPoint x="169.57999999999993" y="520.0000000000001" as="targetPoint"/>
                    </mxGeometry>
                </mxCell>
                <mxCell id="n6aOTrb65r66QteSUWzc-112" value="" style="endArrow=classic;html=1;exitX=0.75;exitY=1;exitDx=0;exitDy=0;entryX=0.75;entryY=0;entryDx=0;entryDy=0;fillColor=#f5f5f5;strokeColor=#666666;" parent="1" edge="1">
                    <mxGeometry width="50" height="50" relative="1" as="geometry">
                        <mxPoint x="269.5799999999999" y="440.0000000000001" as="sourcePoint"/>
                        <mxPoint x="270" y="640" as="targetPoint"/>
                    </mxGeometry>
                </mxCell>
                <mxCell id="n6aOTrb65r66QteSUWzc-113" value="" style="endArrow=classic;html=1;exitX=0.25;exitY=0;exitDx=0;exitDy=0;entryX=0.25;entryY=1;entryDx=0;entryDy=0;fillColor=#f5f5f5;strokeColor=#666666;" parent="1" edge="1">
                    <mxGeometry width="50" height="50" relative="1" as="geometry">
                        <mxPoint x="250" y="640" as="sourcePoint"/>
                        <mxPoint x="249.57999999999993" y="440.0000000000001" as="targetPoint"/>
                    </mxGeometry>
                </mxCell>
                <mxCell id="n6aOTrb65r66QteSUWzc-114" value="" style="endArrow=classic;html=1;exitX=0.75;exitY=1;exitDx=0;exitDy=0;entryX=0.75;entryY=0;entryDx=0;entryDy=0;fillColor=#f5f5f5;strokeColor=#666666;" parent="1" source="n6aOTrb65r66QteSUWzc-11" edge="1">
                    <mxGeometry width="50" height="50" relative="1" as="geometry">
                        <mxPoint x="189.57999999999993" y="280.0000000000001" as="sourcePoint"/>
                        <mxPoint x="190" y="480" as="targetPoint"/>
                    </mxGeometry>
                </mxCell>
                <mxCell id="n6aOTrb65r66QteSUWzc-115" value="" style="endArrow=classic;html=1;exitX=0.25;exitY=0;exitDx=0;exitDy=0;entryX=0.25;entryY=1;entryDx=0;entryDy=0;fillColor=#f5f5f5;strokeColor=#666666;" parent="1" target="n6aOTrb65r66QteSUWzc-11" edge="1">
                    <mxGeometry width="50" height="50" relative="1" as="geometry">
                        <mxPoint x="170" y="480" as="sourcePoint"/>
                        <mxPoint x="169.57999999999993" y="280.0000000000001" as="targetPoint"/>
                    </mxGeometry>
                </mxCell>
                <mxCell id="n6aOTrb65r66QteSUWzc-116" value="" style="endArrow=classic;html=1;exitX=0.75;exitY=1;exitDx=0;exitDy=0;entryX=0.75;entryY=0;entryDx=0;entryDy=0;fillColor=#f5f5f5;strokeColor=#666666;" parent="1" edge="1">
                    <mxGeometry width="50" height="50" relative="1" as="geometry">
                        <mxPoint x="269.58" y="120" as="sourcePoint"/>
                        <mxPoint x="269.58" y="400.0000000000001" as="targetPoint"/>
                    </mxGeometry>
                </mxCell>
                <mxCell id="n6aOTrb65r66QteSUWzc-117" value="" style="endArrow=classic;html=1;exitX=0.25;exitY=0;exitDx=0;exitDy=0;entryX=0.25;entryY=1;entryDx=0;entryDy=0;fillColor=#f5f5f5;strokeColor=#666666;" parent="1" edge="1">
                    <mxGeometry width="50" height="50" relative="1" as="geometry">
                        <mxPoint x="249.57999999999998" y="400.0000000000001" as="sourcePoint"/>
                        <mxPoint x="249.57999999999998" y="120" as="targetPoint"/>
                    </mxGeometry>
                </mxCell>
                <mxCell id="n6aOTrb65r66QteSUWzc-118" value="" style="endArrow=classic;html=1;exitX=0.75;exitY=1;exitDx=0;exitDy=0;entryX=0.75;entryY=0;entryDx=0;entryDy=0;fillColor=#f5f5f5;strokeColor=#666666;" parent="1" edge="1">
                    <mxGeometry width="50" height="50" relative="1" as="geometry">
                        <mxPoint x="349.5799999999999" y="120" as="sourcePoint"/>
                        <mxPoint x="349.5799999999999" y="240" as="targetPoint"/>
                    </mxGeometry>
                </mxCell>
                <mxCell id="n6aOTrb65r66QteSUWzc-119" value="" style="endArrow=classic;html=1;exitX=0.25;exitY=0;exitDx=0;exitDy=0;entryX=0.25;entryY=1;entryDx=0;entryDy=0;fillColor=#f5f5f5;strokeColor=#666666;" parent="1" edge="1">
                    <mxGeometry width="50" height="50" relative="1" as="geometry">
                        <mxPoint x="329.5799999999999" y="240" as="sourcePoint"/>
                        <mxPoint x="329.5799999999999" y="120" as="targetPoint"/>
                    </mxGeometry>
                </mxCell>
                <mxCell id="n6aOTrb65r66QteSUWzc-120" value="" style="endArrow=classic;html=1;exitX=0.75;exitY=1;exitDx=0;exitDy=0;entryX=0.75;entryY=0;entryDx=0;entryDy=0;" parent="1" edge="1">
                    <mxGeometry width="50" height="50" relative="1" as="geometry">
                        <mxPoint x="589.5799999999999" y="280" as="sourcePoint"/>
                        <mxPoint x="589.5799999999999" y="560.0000000000001" as="targetPoint"/>
                    </mxGeometry>
                </mxCell>
                <mxCell id="n6aOTrb65r66QteSUWzc-121" value="" style="endArrow=classic;html=1;exitX=0.25;exitY=0;exitDx=0;exitDy=0;entryX=0.25;entryY=1;entryDx=0;entryDy=0;" parent="1" edge="1">
                    <mxGeometry width="50" height="50" relative="1" as="geometry">
                        <mxPoint x="569.5799999999999" y="560.0000000000001" as="sourcePoint"/>
                        <mxPoint x="569.5799999999999" y="280" as="targetPoint"/>
                    </mxGeometry>
                </mxCell>
                <mxCell id="n6aOTrb65r66QteSUWzc-122" value="" style="endArrow=classic;html=1;exitX=0.75;exitY=1;exitDx=0;exitDy=0;entryX=0.75;entryY=0;entryDx=0;entryDy=0;fillColor=#f5f5f5;strokeColor=#666666;" parent="1" edge="1">
                    <mxGeometry width="50" height="50" relative="1" as="geometry">
                        <mxPoint x="509.58" y="360" as="sourcePoint"/>
                        <mxPoint x="509.58" y="640.0000000000001" as="targetPoint"/>
                    </mxGeometry>
                </mxCell>
                <mxCell id="n6aOTrb65r66QteSUWzc-123" value="" style="endArrow=classic;html=1;exitX=0.25;exitY=0;exitDx=0;exitDy=0;entryX=0.25;entryY=1;entryDx=0;entryDy=0;fillColor=#f5f5f5;strokeColor=#666666;" parent="1" edge="1">
                    <mxGeometry width="50" height="50" relative="1" as="geometry">
                        <mxPoint x="489.58" y="640.0000000000001" as="sourcePoint"/>
                        <mxPoint x="489.58" y="360" as="targetPoint"/>
                    </mxGeometry>
                </mxCell>
                <mxCell id="n6aOTrb65r66QteSUWzc-124" value="" style="endArrow=classic;html=1;exitX=0.75;exitY=1;exitDx=0;exitDy=0;entryX=0.75;entryY=0;entryDx=0;entryDy=0;fillColor=#f5f5f5;strokeColor=#666666;" parent="1" edge="1">
                    <mxGeometry width="50" height="50" relative="1" as="geometry">
                        <mxPoint x="349.58000000000004" y="280" as="sourcePoint"/>
                        <mxPoint x="349.58000000000004" y="560.0000000000001" as="targetPoint"/>
                    </mxGeometry>
                </mxCell>
                <mxCell id="n6aOTrb65r66QteSUWzc-125" value="" style="endArrow=classic;html=1;exitX=0.25;exitY=0;exitDx=0;exitDy=0;entryX=0.25;entryY=1;entryDx=0;entryDy=0;fillColor=#f5f5f5;strokeColor=#666666;" parent="1" edge="1">
                    <mxGeometry width="50" height="50" relative="1" as="geometry">
                        <mxPoint x="329.58000000000004" y="560.0000000000001" as="sourcePoint"/>
                        <mxPoint x="329.58000000000004" y="280" as="targetPoint"/>
                    </mxGeometry>
                </mxCell>
                <mxCell id="n6aOTrb65r66QteSUWzc-126" value="" style="edgeStyle=orthogonalEdgeStyle;rounded=0;orthogonalLoop=1;jettySize=auto;html=1;fillColor=#f5f5f5;strokeColor=#666666;" parent="1" edge="1">
                    <mxGeometry relative="1" as="geometry">
                        <mxPoint x="429.8" y="120" as="sourcePoint"/>
                        <mxPoint x="429.8" y="160" as="targetPoint"/>
                        <Array as="points">
                            <mxPoint x="429.8" y="140"/>
                            <mxPoint x="429.8" y="140"/>
                        </Array>
                    </mxGeometry>
                </mxCell>
                <mxCell id="n6aOTrb65r66QteSUWzc-127" value="" style="edgeStyle=orthogonalEdgeStyle;rounded=0;orthogonalLoop=1;jettySize=auto;html=1;fillColor=#f5f5f5;strokeColor=#666666;" parent="1" edge="1">
                    <mxGeometry relative="1" as="geometry">
                        <mxPoint x="409.8" y="160" as="sourcePoint"/>
                        <mxPoint x="409.8" y="120" as="targetPoint"/>
                        <Array as="points">
                            <mxPoint x="409.8" y="140"/>
                            <mxPoint x="409.8" y="140"/>
                        </Array>
                    </mxGeometry>
                </mxCell>
                <mxCell id="n6aOTrb65r66QteSUWzc-128" value="" style="edgeStyle=orthogonalEdgeStyle;rounded=0;orthogonalLoop=1;jettySize=auto;html=1;fillColor=#f5f5f5;strokeColor=#666666;" parent="1" edge="1">
                    <mxGeometry relative="1" as="geometry">
                        <mxPoint x="669.8" y="360" as="sourcePoint"/>
                        <mxPoint x="669.8" y="400" as="targetPoint"/>
                        <Array as="points">
                            <mxPoint x="669.8" y="380"/>
                            <mxPoint x="669.8" y="380"/>
                        </Array>
                    </mxGeometry>
                </mxCell>
                <mxCell id="n6aOTrb65r66QteSUWzc-129" value="" style="edgeStyle=orthogonalEdgeStyle;rounded=0;orthogonalLoop=1;jettySize=auto;html=1;fillColor=#f5f5f5;strokeColor=#666666;" parent="1" edge="1">
                    <mxGeometry relative="1" as="geometry">
                        <mxPoint x="649.8" y="400" as="sourcePoint"/>
                        <mxPoint x="649.8" y="360" as="targetPoint"/>
                        <Array as="points">
                            <mxPoint x="649.8" y="380"/>
                            <mxPoint x="649.8" y="380"/>
                        </Array>
                    </mxGeometry>
                </mxCell>
                <mxCell id="n6aOTrb65r66QteSUWzc-130" value="" style="edgeStyle=orthogonalEdgeStyle;rounded=0;orthogonalLoop=1;jettySize=auto;html=1;fillColor=#f5f5f5;strokeColor=#666666;" parent="1" edge="1">
                    <mxGeometry relative="1" as="geometry">
                        <mxPoint x="509.8" y="280" as="sourcePoint"/>
                        <mxPoint x="509.8" y="320" as="targetPoint"/>
                        <Array as="points">
                            <mxPoint x="509.8" y="300"/>
                            <mxPoint x="509.8" y="300"/>
                        </Array>
                    </mxGeometry>
                </mxCell>
                <mxCell id="n6aOTrb65r66QteSUWzc-131" value="" style="edgeStyle=orthogonalEdgeStyle;rounded=0;orthogonalLoop=1;jettySize=auto;html=1;fillColor=#f5f5f5;strokeColor=#666666;" parent="1" edge="1">
                    <mxGeometry relative="1" as="geometry">
                        <mxPoint x="489.8" y="320" as="sourcePoint"/>
                        <mxPoint x="489.8" y="280" as="targetPoint"/>
                        <Array as="points">
                            <mxPoint x="489.8" y="300"/>
                            <mxPoint x="489.8" y="300"/>
                        </Array>
                    </mxGeometry>
                </mxCell>
                <mxCell id="n6aOTrb65r66QteSUWzc-132" value="" style="edgeStyle=orthogonalEdgeStyle;rounded=0;orthogonalLoop=1;jettySize=auto;html=1;fillColor=#f5f5f5;strokeColor=#666666;" parent="1" edge="1">
                    <mxGeometry relative="1" as="geometry">
                        <mxPoint x="189.8" y="120" as="sourcePoint"/>
                        <mxPoint x="189.8" y="160" as="targetPoint"/>
                        <Array as="points">
                            <mxPoint x="189.8" y="140"/>
                            <mxPoint x="189.8" y="140"/>
                        </Array>
                    </mxGeometry>
                </mxCell>
                <mxCell id="n6aOTrb65r66QteSUWzc-133" value="" style="edgeStyle=orthogonalEdgeStyle;rounded=0;orthogonalLoop=1;jettySize=auto;html=1;fillColor=#f5f5f5;strokeColor=#666666;" parent="1" edge="1">
                    <mxGeometry relative="1" as="geometry">
                        <mxPoint x="169.8" y="160" as="sourcePoint"/>
                        <mxPoint x="169.8" y="120" as="targetPoint"/>
                        <Array as="points">
                            <mxPoint x="169.8" y="140"/>
                            <mxPoint x="169.8" y="140"/>
                        </Array>
                    </mxGeometry>
                </mxCell>
                <mxCell id="n6aOTrb65r66QteSUWzc-134" value="" style="edgeStyle=orthogonalEdgeStyle;rounded=0;orthogonalLoop=1;jettySize=auto;html=1;" parent="1" edge="1">
                    <mxGeometry relative="1" as="geometry">
                        <mxPoint x="109.79999999999995" y="120" as="sourcePoint"/>
                        <mxPoint x="109.79999999999995" y="160" as="targetPoint"/>
                        <Array as="points">
                            <mxPoint x="109.80000000000001" y="140"/>
                            <mxPoint x="109.80000000000001" y="140"/>
                        </Array>
                    </mxGeometry>
                </mxCell>
                <mxCell id="n6aOTrb65r66QteSUWzc-135" value="" style="edgeStyle=orthogonalEdgeStyle;rounded=0;orthogonalLoop=1;jettySize=auto;html=1;" parent="1" edge="1">
                    <mxGeometry relative="1" as="geometry">
                        <mxPoint x="89.79999999999995" y="160" as="sourcePoint"/>
                        <mxPoint x="89.79999999999995" y="120" as="targetPoint"/>
                        <Array as="points">
                            <mxPoint x="89.80000000000001" y="140"/>
                            <mxPoint x="89.80000000000001" y="140"/>
                        </Array>
                    </mxGeometry>
                </mxCell>
                <mxCell id="n6aOTrb65r66QteSUWzc-136" value="" style="edgeStyle=orthogonalEdgeStyle;rounded=0;orthogonalLoop=1;jettySize=auto;html=1;fillColor=#f5f5f5;strokeColor=#666666;" parent="1" edge="1">
                    <mxGeometry relative="1" as="geometry">
                        <mxPoint x="109.79999999999995" y="200" as="sourcePoint"/>
                        <mxPoint x="109.79999999999995" y="240" as="targetPoint"/>
                        <Array as="points">
                            <mxPoint x="109.80000000000001" y="220"/>
                            <mxPoint x="109.80000000000001" y="220"/>
                        </Array>
                    </mxGeometry>
                </mxCell>
                <mxCell id="n6aOTrb65r66QteSUWzc-137" value="" style="edgeStyle=orthogonalEdgeStyle;rounded=0;orthogonalLoop=1;jettySize=auto;html=1;fillColor=#f5f5f5;strokeColor=#666666;" parent="1" edge="1">
                    <mxGeometry relative="1" as="geometry">
                        <mxPoint x="89.80000000000001" y="240" as="sourcePoint"/>
                        <mxPoint x="89.80000000000001" y="200" as="targetPoint"/>
                        <Array as="points">
                            <mxPoint x="89.80000000000001" y="220"/>
                            <mxPoint x="89.80000000000001" y="220"/>
                        </Array>
                    </mxGeometry>
                </mxCell>
                <mxCell id="n6aOTrb65r66QteSUWzc-138" value="" style="edgeStyle=orthogonalEdgeStyle;rounded=0;orthogonalLoop=1;jettySize=auto;html=1;fillColor=#f5f5f5;strokeColor=#666666;" parent="1" edge="1">
                    <mxGeometry relative="1" as="geometry">
                        <mxPoint x="109.79999999999995" y="280" as="sourcePoint"/>
                        <mxPoint x="109.79999999999995" y="320" as="targetPoint"/>
                        <Array as="points">
                            <mxPoint x="109.80000000000001" y="300"/>
                            <mxPoint x="109.80000000000001" y="300"/>
                        </Array>
                    </mxGeometry>
                </mxCell>
                <mxCell id="n6aOTrb65r66QteSUWzc-139" value="" style="edgeStyle=orthogonalEdgeStyle;rounded=0;orthogonalLoop=1;jettySize=auto;html=1;fillColor=#f5f5f5;strokeColor=#666666;" parent="1" edge="1">
                    <mxGeometry relative="1" as="geometry">
                        <mxPoint x="89.80000000000001" y="320" as="sourcePoint"/>
                        <mxPoint x="89.80000000000001" y="280" as="targetPoint"/>
                        <Array as="points">
                            <mxPoint x="89.80000000000001" y="300"/>
                            <mxPoint x="89.80000000000001" y="300"/>
                        </Array>
                    </mxGeometry>
                </mxCell>
                <mxCell id="n6aOTrb65r66QteSUWzc-140" value="" style="edgeStyle=orthogonalEdgeStyle;rounded=0;orthogonalLoop=1;jettySize=auto;html=1;fillColor=#f5f5f5;strokeColor=#666666;" parent="1" edge="1">
                    <mxGeometry relative="1" as="geometry">
                        <mxPoint x="109.79999999999995" y="360" as="sourcePoint"/>
                        <mxPoint x="109.79999999999995" y="400" as="targetPoint"/>
                        <Array as="points">
                            <mxPoint x="109.80000000000001" y="380"/>
                            <mxPoint x="109.80000000000001" y="380"/>
                        </Array>
                    </mxGeometry>
                </mxCell>
                <mxCell id="n6aOTrb65r66QteSUWzc-141" value="" style="edgeStyle=orthogonalEdgeStyle;rounded=0;orthogonalLoop=1;jettySize=auto;html=1;fillColor=#f5f5f5;strokeColor=#666666;" parent="1" edge="1">
                    <mxGeometry relative="1" as="geometry">
                        <mxPoint x="89.80000000000001" y="400" as="sourcePoint"/>
                        <mxPoint x="89.80000000000001" y="360" as="targetPoint"/>
                        <Array as="points">
                            <mxPoint x="89.80000000000001" y="380"/>
                            <mxPoint x="89.80000000000001" y="380"/>
                        </Array>
                    </mxGeometry>
                </mxCell>
                <mxCell id="n6aOTrb65r66QteSUWzc-142" value="" style="edgeStyle=orthogonalEdgeStyle;rounded=0;orthogonalLoop=1;jettySize=auto;html=1;fillColor=#f5f5f5;strokeColor=#666666;" parent="1" edge="1">
                    <mxGeometry relative="1" as="geometry">
                        <mxPoint x="109.79999999999995" y="440" as="sourcePoint"/>
                        <mxPoint x="109.79999999999995" y="480" as="targetPoint"/>
                        <Array as="points">
                            <mxPoint x="109.80000000000001" y="460"/>
                            <mxPoint x="109.80000000000001" y="460"/>
                        </Array>
                    </mxGeometry>
                </mxCell>
                <mxCell id="n6aOTrb65r66QteSUWzc-143" value="" style="edgeStyle=orthogonalEdgeStyle;rounded=0;orthogonalLoop=1;jettySize=auto;html=1;fillColor=#f5f5f5;strokeColor=#666666;" parent="1" edge="1">
                    <mxGeometry relative="1" as="geometry">
                        <mxPoint x="89.80000000000001" y="480" as="sourcePoint"/>
                        <mxPoint x="89.80000000000001" y="440" as="targetPoint"/>
                        <Array as="points">
                            <mxPoint x="89.80000000000001" y="460"/>
                            <mxPoint x="89.80000000000001" y="460"/>
                        </Array>
                    </mxGeometry>
                </mxCell>
                <mxCell id="n6aOTrb65r66QteSUWzc-144" value="" style="edgeStyle=orthogonalEdgeStyle;rounded=0;orthogonalLoop=1;jettySize=auto;html=1;fillColor=#f5f5f5;strokeColor=#666666;" parent="1" edge="1">
                    <mxGeometry relative="1" as="geometry">
                        <mxPoint x="109.79999999999995" y="520" as="sourcePoint"/>
                        <mxPoint x="109.79999999999995" y="560" as="targetPoint"/>
                        <Array as="points">
                            <mxPoint x="109.80000000000001" y="540"/>
                            <mxPoint x="109.80000000000001" y="540"/>
                        </Array>
                    </mxGeometry>
                </mxCell>
                <mxCell id="n6aOTrb65r66QteSUWzc-145" value="" style="edgeStyle=orthogonalEdgeStyle;rounded=0;orthogonalLoop=1;jettySize=auto;html=1;fillColor=#f5f5f5;strokeColor=#666666;" parent="1" edge="1">
                    <mxGeometry relative="1" as="geometry">
                        <mxPoint x="89.80000000000001" y="560" as="sourcePoint"/>
                        <mxPoint x="89.80000000000001" y="520" as="targetPoint"/>
                        <Array as="points">
                            <mxPoint x="89.80000000000001" y="540"/>
                            <mxPoint x="89.80000000000001" y="540"/>
                        </Array>
                    </mxGeometry>
                </mxCell>
                <mxCell id="n6aOTrb65r66QteSUWzc-146" value="" style="edgeStyle=orthogonalEdgeStyle;rounded=0;orthogonalLoop=1;jettySize=auto;html=1;fillColor=#f5f5f5;strokeColor=#666666;" parent="1" edge="1">
                    <mxGeometry relative="1" as="geometry">
                        <mxPoint x="109.79999999999995" y="600" as="sourcePoint"/>
                        <mxPoint x="109.79999999999995" y="640" as="targetPoint"/>
                        <Array as="points">
                            <mxPoint x="109.80000000000001" y="620"/>
                            <mxPoint x="109.80000000000001" y="620"/>
                        </Array>
                    </mxGeometry>
                </mxCell>
                <mxCell id="n6aOTrb65r66QteSUWzc-147" value="" style="edgeStyle=orthogonalEdgeStyle;rounded=0;orthogonalLoop=1;jettySize=auto;html=1;fillColor=#f5f5f5;strokeColor=#666666;" parent="1" edge="1">
                    <mxGeometry relative="1" as="geometry">
                        <mxPoint x="89.80000000000001" y="640" as="sourcePoint"/>
                        <mxPoint x="89.80000000000001" y="600" as="targetPoint"/>
                        <Array as="points">
                            <mxPoint x="89.80000000000001" y="620"/>
                            <mxPoint x="89.80000000000001" y="620"/>
                        </Array>
                    </mxGeometry>
                </mxCell>
                <mxCell id="n6aOTrb65r66QteSUWzc-148" value="" style="edgeStyle=orthogonalEdgeStyle;rounded=0;orthogonalLoop=1;jettySize=auto;html=1;fillColor=#f5f5f5;strokeColor=#666666;" parent="1" edge="1">
                    <mxGeometry relative="1" as="geometry">
                        <mxPoint x="109.79999999999995" y="680" as="sourcePoint"/>
                        <mxPoint x="109.79999999999995" y="720" as="targetPoint"/>
                        <Array as="points">
                            <mxPoint x="109.80000000000001" y="700"/>
                            <mxPoint x="109.80000000000001" y="700"/>
                        </Array>
                    </mxGeometry>
                </mxCell>
                <mxCell id="n6aOTrb65r66QteSUWzc-149" value="" style="edgeStyle=orthogonalEdgeStyle;rounded=0;orthogonalLoop=1;jettySize=auto;html=1;fillColor=#f5f5f5;strokeColor=#666666;" parent="1" edge="1">
                    <mxGeometry relative="1" as="geometry">
                        <mxPoint x="89.80000000000001" y="720" as="sourcePoint"/>
                        <mxPoint x="89.80000000000001" y="680" as="targetPoint"/>
                        <Array as="points">
                            <mxPoint x="89.80000000000001" y="700"/>
                            <mxPoint x="89.80000000000001" y="700"/>
                        </Array>
                    </mxGeometry>
                </mxCell>
                <mxCell id="n6aOTrb65r66QteSUWzc-150" value="" style="edgeStyle=orthogonalEdgeStyle;rounded=0;orthogonalLoop=1;jettySize=auto;html=1;fillColor=#f5f5f5;strokeColor=#666666;" parent="1" edge="1">
                    <mxGeometry relative="1" as="geometry">
                        <mxPoint x="349.79999999999995" y="600" as="sourcePoint"/>
                        <mxPoint x="349.79999999999995" y="640" as="targetPoint"/>
                        <Array as="points">
                            <mxPoint x="349.8" y="620"/>
                            <mxPoint x="349.8" y="620"/>
                        </Array>
                    </mxGeometry>
                </mxCell>
                <mxCell id="n6aOTrb65r66QteSUWzc-151" value="" style="edgeStyle=orthogonalEdgeStyle;rounded=0;orthogonalLoop=1;jettySize=auto;html=1;fillColor=#f5f5f5;strokeColor=#666666;" parent="1" edge="1">
                    <mxGeometry relative="1" as="geometry">
                        <mxPoint x="329.8" y="640" as="sourcePoint"/>
                        <mxPoint x="329.8" y="600" as="targetPoint"/>
                        <Array as="points">
                            <mxPoint x="329.8" y="620"/>
                            <mxPoint x="329.8" y="620"/>
                        </Array>
                    </mxGeometry>
                </mxCell>
                <mxCell id="n6aOTrb65r66QteSUWzc-152" value="" style="endArrow=classic;html=1;exitX=0.75;exitY=1;exitDx=0;exitDy=0;entryX=0.75;entryY=0;entryDx=0;entryDy=0;" parent="1" edge="1">
                    <mxGeometry width="50" height="50" relative="1" as="geometry">
                        <mxPoint x="589.5799999999999" y="600" as="sourcePoint"/>
                        <mxPoint x="589.5799999999999" y="720.0000000000001" as="targetPoint"/>
                    </mxGeometry>
                </mxCell>
                <mxCell id="n6aOTrb65r66QteSUWzc-153" value="" style="endArrow=classic;html=1;exitX=0.25;exitY=0;exitDx=0;exitDy=0;entryX=0.25;entryY=1;entryDx=0;entryDy=0;" parent="1" edge="1">
                    <mxGeometry width="50" height="50" relative="1" as="geometry">
                        <mxPoint x="569.5799999999999" y="720.0000000000001" as="sourcePoint"/>
                        <mxPoint x="569.5799999999999" y="600" as="targetPoint"/>
                    </mxGeometry>
                </mxCell>
                <mxCell id="n6aOTrb65r66QteSUWzc-154" value="" style="edgeStyle=orthogonalEdgeStyle;rounded=0;orthogonalLoop=1;jettySize=auto;html=1;fillColor=#f5f5f5;strokeColor=#666666;" parent="1" edge="1">
                    <mxGeometry relative="1" as="geometry">
                        <mxPoint x="120" y="169.80000000000013" as="sourcePoint"/>
                        <mxPoint x="160" y="169.80000000000013" as="targetPoint"/>
                        <Array as="points">
                            <mxPoint x="140" y="169.8"/>
                            <mxPoint x="140" y="169.8"/>
                        </Array>
                    </mxGeometry>
                </mxCell>
                <mxCell id="n6aOTrb65r66QteSUWzc-155" value="" style="edgeStyle=orthogonalEdgeStyle;rounded=0;orthogonalLoop=1;jettySize=auto;html=1;fillColor=#f5f5f5;strokeColor=#666666;" parent="1" edge="1">
                    <mxGeometry relative="1" as="geometry">
                        <mxPoint x="160" y="189.80000000000013" as="sourcePoint"/>
                        <mxPoint x="120" y="189.80000000000013" as="targetPoint"/>
                        <Array as="points">
                            <mxPoint x="140" y="189.8"/>
                            <mxPoint x="140" y="189.8"/>
                        </Array>
                    </mxGeometry>
                </mxCell>
                <mxCell id="n6aOTrb65r66QteSUWzc-156" value="" style="edgeStyle=orthogonalEdgeStyle;rounded=0;orthogonalLoop=1;jettySize=auto;html=1;fillColor=#f5f5f5;strokeColor=#666666;" parent="1" edge="1">
                    <mxGeometry relative="1" as="geometry">
                        <mxPoint x="120" y="489.8000000000001" as="sourcePoint"/>
                        <mxPoint x="160" y="489.8000000000001" as="targetPoint"/>
                        <Array as="points">
                            <mxPoint x="140" y="489.8"/>
                            <mxPoint x="140" y="489.8"/>
                        </Array>
                    </mxGeometry>
                </mxCell>
                <mxCell id="n6aOTrb65r66QteSUWzc-157" value="" style="edgeStyle=orthogonalEdgeStyle;rounded=0;orthogonalLoop=1;jettySize=auto;html=1;fillColor=#f5f5f5;strokeColor=#666666;" parent="1" edge="1">
                    <mxGeometry relative="1" as="geometry">
                        <mxPoint x="160" y="509.8000000000001" as="sourcePoint"/>
                        <mxPoint x="120" y="509.8000000000001" as="targetPoint"/>
                        <Array as="points">
                            <mxPoint x="140" y="509.8"/>
                            <mxPoint x="140" y="509.8"/>
                        </Array>
                    </mxGeometry>
                </mxCell>
                <mxCell id="n6aOTrb65r66QteSUWzc-158" value="" style="edgeStyle=orthogonalEdgeStyle;rounded=0;orthogonalLoop=1;jettySize=auto;html=1;fillColor=#f5f5f5;strokeColor=#666666;" parent="1" edge="1">
                    <mxGeometry relative="1" as="geometry">
                        <mxPoint x="280" y="649.8000000000002" as="sourcePoint"/>
                        <mxPoint x="320" y="649.8000000000002" as="targetPoint"/>
                        <Array as="points">
                            <mxPoint x="300" y="649.8"/>
                            <mxPoint x="300" y="649.8"/>
                        </Array>
                    </mxGeometry>
                </mxCell>
                <mxCell id="n6aOTrb65r66QteSUWzc-159" value="" style="edgeStyle=orthogonalEdgeStyle;rounded=0;orthogonalLoop=1;jettySize=auto;html=1;fillColor=#f5f5f5;strokeColor=#666666;" parent="1" edge="1">
                    <mxGeometry relative="1" as="geometry">
                        <mxPoint x="320" y="669.8000000000002" as="sourcePoint"/>
                        <mxPoint x="280" y="669.8000000000002" as="targetPoint"/>
                        <Array as="points">
                            <mxPoint x="300" y="669.8"/>
                            <mxPoint x="300" y="669.8"/>
                        </Array>
                    </mxGeometry>
                </mxCell>
                <mxCell id="n6aOTrb65r66QteSUWzc-160" value="" style="edgeStyle=orthogonalEdgeStyle;rounded=0;orthogonalLoop=1;jettySize=auto;html=1;fillColor=#f5f5f5;strokeColor=#666666;" parent="1" edge="1">
                    <mxGeometry relative="1" as="geometry">
                        <mxPoint x="120" y="729.8000000000002" as="sourcePoint"/>
                        <mxPoint x="160" y="729.8000000000002" as="targetPoint"/>
                        <Array as="points">
                            <mxPoint x="140" y="729.8"/>
                            <mxPoint x="140" y="729.8"/>
                        </Array>
                    </mxGeometry>
                </mxCell>
                <mxCell id="n6aOTrb65r66QteSUWzc-161" value="" style="edgeStyle=orthogonalEdgeStyle;rounded=0;orthogonalLoop=1;jettySize=auto;html=1;fillColor=#f5f5f5;strokeColor=#666666;" parent="1" edge="1">
                    <mxGeometry relative="1" as="geometry">
                        <mxPoint x="160" y="749.8000000000002" as="sourcePoint"/>
                        <mxPoint x="120" y="749.8000000000002" as="targetPoint"/>
                        <Array as="points">
                            <mxPoint x="140" y="749.8"/>
                            <mxPoint x="140" y="749.8"/>
                        </Array>
                    </mxGeometry>
                </mxCell>
                <mxCell id="n6aOTrb65r66QteSUWzc-162" value="" style="edgeStyle=orthogonalEdgeStyle;rounded=0;orthogonalLoop=1;jettySize=auto;html=1;entryX=0;entryY=0.25;entryDx=0;entryDy=0;fillColor=#f5f5f5;strokeColor=#666666;" parent="1" target="n6aOTrb65r66QteSUWzc-36" edge="1">
                    <mxGeometry relative="1" as="geometry">
                        <mxPoint x="120" y="410" as="sourcePoint"/>
                        <mxPoint x="160.0000000000001" y="409.7600000000002" as="targetPoint"/>
                        <Array as="points"/>
                    </mxGeometry>
                </mxCell>
                <mxCell id="n6aOTrb65r66QteSUWzc-163" value="" style="edgeStyle=orthogonalEdgeStyle;rounded=0;orthogonalLoop=1;jettySize=auto;html=1;exitX=0;exitY=0.75;exitDx=0;exitDy=0;fillColor=#f5f5f5;strokeColor=#666666;" parent="1" source="n6aOTrb65r66QteSUWzc-36" edge="1">
                    <mxGeometry relative="1" as="geometry">
                        <mxPoint x="160.0000000000001" y="429.7600000000002" as="sourcePoint"/>
                        <mxPoint x="120" y="430" as="targetPoint"/>
                        <Array as="points">
                            <mxPoint x="140" y="430"/>
                        </Array>
                    </mxGeometry>
                </mxCell>
                <mxCell id="n6aOTrb65r66QteSUWzc-169" value="" style="edgeStyle=orthogonalEdgeStyle;rounded=0;orthogonalLoop=1;jettySize=auto;html=1;exitX=0;exitY=0.75;exitDx=0;exitDy=0;fillColor=#f5f5f5;strokeColor=#666666;" parent="1" edge="1">
                    <mxGeometry relative="1" as="geometry">
                        <mxPoint x="480" y="670" as="sourcePoint"/>
                        <mxPoint x="360.0000000000001" y="669.7600000000002" as="targetPoint"/>
                        <Array as="points">
                            <mxPoint x="380" y="670"/>
                        </Array>
                    </mxGeometry>
                </mxCell>
                <mxCell id="n6aOTrb65r66QteSUWzc-170" value="" style="edgeStyle=orthogonalEdgeStyle;rounded=0;orthogonalLoop=1;jettySize=auto;html=1;entryX=0;entryY=0.25;entryDx=0;entryDy=0;exitX=1;exitY=0.25;exitDx=0;exitDy=0;fillColor=#f5f5f5;strokeColor=#666666;" parent="1" source="n6aOTrb65r66QteSUWzc-61" target="n6aOTrb65r66QteSUWzc-63" edge="1">
                    <mxGeometry relative="1" as="geometry">
                        <mxPoint x="460" y="620" as="sourcePoint"/>
                        <mxPoint x="360.0000000000001" y="650.0000000000002" as="targetPoint"/>
                        <Array as="points">
                            <mxPoint x="370" y="650"/>
                            <mxPoint x="370" y="650"/>
                        </Array>
                    </mxGeometry>
                </mxCell>
                <mxCell id="n6aOTrb65r66QteSUWzc-171" value="" style="edgeStyle=orthogonalEdgeStyle;rounded=0;orthogonalLoop=1;jettySize=auto;html=1;fillColor=#f5f5f5;strokeColor=#666666;" parent="1" edge="1">
                    <mxGeometry relative="1" as="geometry">
                        <mxPoint x="440" y="329.76000000000016" as="sourcePoint"/>
                        <mxPoint x="480" y="329.76000000000016" as="targetPoint"/>
                        <Array as="points">
                            <mxPoint x="460" y="329.75999999999993"/>
                            <mxPoint x="460" y="329.75999999999993"/>
                        </Array>
                    </mxGeometry>
                </mxCell>
                <mxCell id="n6aOTrb65r66QteSUWzc-172" value="" style="edgeStyle=orthogonalEdgeStyle;rounded=0;orthogonalLoop=1;jettySize=auto;html=1;fillColor=#f5f5f5;strokeColor=#666666;" parent="1" edge="1">
                    <mxGeometry relative="1" as="geometry">
                        <mxPoint x="480" y="349.76000000000016" as="sourcePoint"/>
                        <mxPoint x="440" y="349.76000000000016" as="targetPoint"/>
                        <Array as="points">
                            <mxPoint x="460" y="349.75999999999993"/>
                            <mxPoint x="460" y="349.75999999999993"/>
                        </Array>
                    </mxGeometry>
                </mxCell>
                <mxCell id="n6aOTrb65r66QteSUWzc-174" value="" style="edgeStyle=orthogonalEdgeStyle;rounded=0;orthogonalLoop=1;jettySize=auto;html=1;exitX=0;exitY=0.75;exitDx=0;exitDy=0;fillColor=#f5f5f5;strokeColor=#666666;" parent="1" source="n6aOTrb65r66QteSUWzc-23" edge="1">
                    <mxGeometry relative="1" as="geometry">
                        <mxPoint x="400" y="269.7600000000002" as="sourcePoint"/>
                        <mxPoint x="360" y="269.7600000000002" as="targetPoint"/>
                        <Array as="points">
                            <mxPoint x="380" y="270"/>
                        </Array>
                    </mxGeometry>
                </mxCell>
                <mxCell id="n6aOTrb65r66QteSUWzc-175" value="" style="edgeStyle=orthogonalEdgeStyle;rounded=0;orthogonalLoop=1;jettySize=auto;html=1;entryX=0;entryY=0.25;entryDx=0;entryDy=0;exitX=1;exitY=0.25;exitDx=0;exitDy=0;fillColor=#f5f5f5;strokeColor=#666666;" parent="1" source="n6aOTrb65r66QteSUWzc-21" target="n6aOTrb65r66QteSUWzc-23" edge="1">
                    <mxGeometry relative="1" as="geometry">
                        <mxPoint x="390" y="240" as="sourcePoint"/>
                        <mxPoint x="360" y="250.00000000000023" as="targetPoint"/>
                        <Array as="points">
                            <mxPoint x="370" y="250"/>
                            <mxPoint x="370" y="250"/>
                        </Array>
                    </mxGeometry>
                </mxCell>
                <mxCell id="n6aOTrb65r66QteSUWzc-176" value="" style="edgeStyle=orthogonalEdgeStyle;rounded=0;orthogonalLoop=1;jettySize=auto;html=1;fillColor=#f5f5f5;strokeColor=#666666;" parent="1" edge="1">
                    <mxGeometry relative="1" as="geometry">
                        <mxPoint x="520" y="249.80000000000024" as="sourcePoint"/>
                        <mxPoint x="560" y="249.80000000000024" as="targetPoint"/>
                        <Array as="points">
                            <mxPoint x="540" y="249.79999999999995"/>
                            <mxPoint x="540" y="249.79999999999995"/>
                        </Array>
                    </mxGeometry>
                </mxCell>
                <mxCell id="n6aOTrb65r66QteSUWzc-177" value="" style="edgeStyle=orthogonalEdgeStyle;rounded=0;orthogonalLoop=1;jettySize=auto;html=1;fillColor=#f5f5f5;strokeColor=#666666;" parent="1" edge="1">
                    <mxGeometry relative="1" as="geometry">
                        <mxPoint x="560" y="269.80000000000024" as="sourcePoint"/>
                        <mxPoint x="520" y="269.80000000000024" as="targetPoint"/>
                        <Array as="points">
                            <mxPoint x="540" y="269.79999999999995"/>
                            <mxPoint x="540" y="269.79999999999995"/>
                        </Array>
                    </mxGeometry>
                </mxCell>
                <mxCell id="n6aOTrb65r66QteSUWzc-178" value="" style="edgeStyle=orthogonalEdgeStyle;rounded=0;orthogonalLoop=1;jettySize=auto;html=1;exitX=0;exitY=0.75;exitDx=0;exitDy=0;fillColor=#f5f5f5;strokeColor=#666666;" parent="1" source="n6aOTrb65r66QteSUWzc-14" edge="1">
                    <mxGeometry relative="1" as="geometry">
                        <mxPoint x="320" y="189.83" as="sourcePoint"/>
                        <mxPoint x="200" y="189.59000000000023" as="targetPoint"/>
                        <Array as="points">
                            <mxPoint x="220" y="190"/>
                        </Array>
                    </mxGeometry>
                </mxCell>
                <mxCell id="n6aOTrb65r66QteSUWzc-179" value="" style="edgeStyle=orthogonalEdgeStyle;rounded=0;orthogonalLoop=1;jettySize=auto;html=1;entryX=0;entryY=0.25;entryDx=0;entryDy=0;fillColor=#f5f5f5;strokeColor=#666666;" parent="1" target="n6aOTrb65r66QteSUWzc-14" edge="1">
                    <mxGeometry relative="1" as="geometry">
                        <mxPoint x="200" y="170" as="sourcePoint"/>
                        <mxPoint x="320" y="169.83" as="targetPoint"/>
                        <Array as="points"/>
                    </mxGeometry>
                </mxCell>
                <mxCell id="n6aOTrb65r66QteSUWzc-180" value="" style="edgeStyle=orthogonalEdgeStyle;rounded=0;orthogonalLoop=1;jettySize=auto;html=1;entryX=0;entryY=0.25;entryDx=0;entryDy=0;fillColor=#f5f5f5;strokeColor=#666666;" parent="1" target="n6aOTrb65r66QteSUWzc-46" edge="1">
                    <mxGeometry relative="1" as="geometry">
                        <mxPoint x="200" y="490" as="sourcePoint"/>
                        <mxPoint x="320" y="489.97" as="targetPoint"/>
                        <Array as="points"/>
                    </mxGeometry>
                </mxCell>
                <mxCell id="n6aOTrb65r66QteSUWzc-181" value="" style="edgeStyle=orthogonalEdgeStyle;rounded=0;orthogonalLoop=1;jettySize=auto;html=1;exitX=0;exitY=0.75;exitDx=0;exitDy=0;fillColor=#f5f5f5;strokeColor=#666666;" parent="1" source="n6aOTrb65r66QteSUWzc-46" edge="1">
                    <mxGeometry relative="1" as="geometry">
                        <mxPoint x="320" y="509.97" as="sourcePoint"/>
                        <mxPoint x="200" y="510" as="targetPoint"/>
                        <Array as="points">
                            <mxPoint x="220" y="510"/>
                        </Array>
                    </mxGeometry>
                </mxCell>
                <mxCell id="n6aOTrb65r66QteSUWzc-182" value="" style="edgeStyle=orthogonalEdgeStyle;rounded=0;orthogonalLoop=1;jettySize=auto;html=1;entryX=0;entryY=0.25;entryDx=0;entryDy=0;fillColor=#f5f5f5;strokeColor=#666666;" parent="1" target="n6aOTrb65r66QteSUWzc-17" edge="1">
                    <mxGeometry relative="1" as="geometry">
                        <mxPoint x="440" y="170" as="sourcePoint"/>
                        <mxPoint x="640" y="169.97000000000003" as="targetPoint"/>
                        <Array as="points">
                            <mxPoint x="540" y="170"/>
                        </Array>
                    </mxGeometry>
                </mxCell>
                <mxCell id="n6aOTrb65r66QteSUWzc-183" value="" style="edgeStyle=orthogonalEdgeStyle;rounded=0;orthogonalLoop=1;jettySize=auto;html=1;exitX=0;exitY=0.75;exitDx=0;exitDy=0;fillColor=#f5f5f5;strokeColor=#666666;" parent="1" edge="1">
                    <mxGeometry relative="1" as="geometry">
                        <mxPoint x="640" y="189.97000000000003" as="sourcePoint"/>
                        <mxPoint x="440" y="190" as="targetPoint"/>
                        <Array as="points">
                            <mxPoint x="460" y="189.97000000000003"/>
                        </Array>
                    </mxGeometry>
                </mxCell>
                <mxCell id="n6aOTrb65r66QteSUWzc-184" value="" style="edgeStyle=orthogonalEdgeStyle;rounded=0;orthogonalLoop=1;jettySize=auto;html=1;exitX=0;exitY=0.75;exitDx=0;exitDy=0;fillColor=#f5f5f5;strokeColor=#666666;" parent="1" edge="1">
                    <mxGeometry relative="1" as="geometry">
                        <mxPoint x="319.97" y="269.97" as="sourcePoint"/>
                        <mxPoint x="119.97" y="269.5600000000003" as="targetPoint"/>
                        <Array as="points">
                            <mxPoint x="139.97" y="269.97"/>
                        </Array>
                    </mxGeometry>
                </mxCell>
                <mxCell id="n6aOTrb65r66QteSUWzc-185" value="" style="edgeStyle=orthogonalEdgeStyle;rounded=0;orthogonalLoop=1;jettySize=auto;html=1;entryX=0;entryY=0.25;entryDx=0;entryDy=0;exitX=1;exitY=0.25;exitDx=0;exitDy=0;fillColor=#f5f5f5;strokeColor=#666666;" parent="1" edge="1">
                    <mxGeometry relative="1" as="geometry">
                        <mxPoint x="119.97" y="249.80000000000004" as="sourcePoint"/>
                        <mxPoint x="319.97" y="249.97" as="targetPoint"/>
                        <Array as="points">
                            <mxPoint x="270" y="250"/>
                            <mxPoint x="270" y="250"/>
                        </Array>
                    </mxGeometry>
                </mxCell>
                <mxCell id="n6aOTrb65r66QteSUWzc-186" value="" style="edgeStyle=orthogonalEdgeStyle;rounded=0;orthogonalLoop=1;jettySize=auto;html=1;exitX=0;exitY=0.75;exitDx=0;exitDy=0;fillColor=#f5f5f5;strokeColor=#666666;" parent="1" edge="1">
                    <mxGeometry relative="1" as="geometry">
                        <mxPoint x="320" y="590" as="sourcePoint"/>
                        <mxPoint x="120.00000000000003" y="589.5900000000003" as="targetPoint"/>
                        <Array as="points">
                            <mxPoint x="140" y="590"/>
                        </Array>
                    </mxGeometry>
                </mxCell>
                <mxCell id="n6aOTrb65r66QteSUWzc-187" value="" style="edgeStyle=orthogonalEdgeStyle;rounded=0;orthogonalLoop=1;jettySize=auto;html=1;entryX=0;entryY=0.25;entryDx=0;entryDy=0;exitX=1;exitY=0.25;exitDx=0;exitDy=0;fillColor=#f5f5f5;strokeColor=#666666;" parent="1" edge="1">
                    <mxGeometry relative="1" as="geometry">
                        <mxPoint x="120.00000000000003" y="569.83" as="sourcePoint"/>
                        <mxPoint x="320" y="570" as="targetPoint"/>
                        <Array as="points">
                            <mxPoint x="270.03" y="570.03"/>
                            <mxPoint x="270.03" y="570.03"/>
                        </Array>
                    </mxGeometry>
                </mxCell>
                <mxCell id="n6aOTrb65r66QteSUWzc-188" value="" style="edgeStyle=orthogonalEdgeStyle;rounded=0;orthogonalLoop=1;jettySize=auto;html=1;exitX=0;exitY=0.75;exitDx=0;exitDy=0;fillColor=#f5f5f5;strokeColor=#666666;" parent="1" edge="1">
                    <mxGeometry relative="1" as="geometry">
                        <mxPoint x="400" y="750.02" as="sourcePoint"/>
                        <mxPoint x="200" y="749.6100000000002" as="targetPoint"/>
                        <Array as="points">
                            <mxPoint x="220" y="750.02"/>
                        </Array>
                    </mxGeometry>
                </mxCell>
                <mxCell id="n6aOTrb65r66QteSUWzc-189" value="" style="edgeStyle=orthogonalEdgeStyle;rounded=0;orthogonalLoop=1;jettySize=auto;html=1;entryX=0;entryY=0.25;entryDx=0;entryDy=0;exitX=1;exitY=0.25;exitDx=0;exitDy=0;fillColor=#f5f5f5;strokeColor=#666666;" parent="1" edge="1">
                    <mxGeometry relative="1" as="geometry">
                        <mxPoint x="200" y="729.85" as="sourcePoint"/>
                        <mxPoint x="400" y="730.02" as="targetPoint"/>
                        <Array as="points">
                            <mxPoint x="350.03" y="730.05"/>
                            <mxPoint x="350.03" y="730.05"/>
                        </Array>
                    </mxGeometry>
                </mxCell>
                <mxCell id="n6aOTrb65r66QteSUWzc-190" value="" style="edgeStyle=orthogonalEdgeStyle;rounded=0;orthogonalLoop=1;jettySize=auto;html=1;exitX=0;exitY=0.75;exitDx=0;exitDy=0;fillColor=#f5f5f5;strokeColor=#666666;" parent="1" edge="1">
                    <mxGeometry relative="1" as="geometry">
                        <mxPoint x="560" y="749.83" as="sourcePoint"/>
                        <mxPoint x="440.0000000000001" y="749.5900000000003" as="targetPoint"/>
                        <Array as="points">
                            <mxPoint x="460" y="749.83"/>
                        </Array>
                    </mxGeometry>
                </mxCell>
                <mxCell id="n6aOTrb65r66QteSUWzc-191" value="" style="edgeStyle=orthogonalEdgeStyle;rounded=0;orthogonalLoop=1;jettySize=auto;html=1;entryX=0;entryY=0.25;entryDx=0;entryDy=0;exitX=1;exitY=0.25;exitDx=0;exitDy=0;fillColor=#f5f5f5;strokeColor=#666666;" parent="1" edge="1">
                    <mxGeometry relative="1" as="geometry">
                        <mxPoint x="440" y="729.83" as="sourcePoint"/>
                        <mxPoint x="560" y="729.83" as="targetPoint"/>
                        <Array as="points">
                            <mxPoint x="450" y="729.83"/>
                            <mxPoint x="450" y="729.83"/>
                        </Array>
                    </mxGeometry>
                </mxCell>
                <mxCell id="n6aOTrb65r66QteSUWzc-192" value="" style="edgeStyle=orthogonalEdgeStyle;rounded=0;orthogonalLoop=1;jettySize=auto;html=1;exitX=0;exitY=0.75;exitDx=0;exitDy=0;fillColor=#f5f5f5;strokeColor=#666666;" parent="1" edge="1">
                    <mxGeometry relative="1" as="geometry">
                        <mxPoint x="240" y="669.8499999999999" as="sourcePoint"/>
                        <mxPoint x="120" y="669.6100000000001" as="targetPoint"/>
                        <Array as="points">
                            <mxPoint x="140" y="669.85"/>
                        </Array>
                    </mxGeometry>
                </mxCell>
                <mxCell id="n6aOTrb65r66QteSUWzc-193" value="" style="edgeStyle=orthogonalEdgeStyle;rounded=0;orthogonalLoop=1;jettySize=auto;html=1;entryX=0;entryY=0.25;entryDx=0;entryDy=0;exitX=1;exitY=0.25;exitDx=0;exitDy=0;fillColor=#f5f5f5;strokeColor=#666666;" parent="1" edge="1">
                    <mxGeometry relative="1" as="geometry">
                        <mxPoint x="120" y="649.8499999999999" as="sourcePoint"/>
                        <mxPoint x="240" y="649.8499999999999" as="targetPoint"/>
                        <Array as="points">
                            <mxPoint x="130" y="649.85"/>
                            <mxPoint x="130" y="649.85"/>
                        </Array>
                    </mxGeometry>
                </mxCell>
                <mxCell id="n6aOTrb65r66QteSUWzc-194" value="" style="edgeStyle=orthogonalEdgeStyle;rounded=0;orthogonalLoop=1;jettySize=auto;html=1;exitX=0;exitY=0.75;exitDx=0;exitDy=0;fillColor=#f5f5f5;strokeColor=#666666;" parent="1" edge="1">
                    <mxGeometry relative="1" as="geometry">
                        <mxPoint x="560" y="590.02" as="sourcePoint"/>
                        <mxPoint x="360" y="590" as="targetPoint"/>
                        <Array as="points">
                            <mxPoint x="380" y="590.02"/>
                        </Array>
                    </mxGeometry>
                </mxCell>
                <mxCell id="n6aOTrb65r66QteSUWzc-195" value="" style="edgeStyle=orthogonalEdgeStyle;rounded=0;orthogonalLoop=1;jettySize=auto;html=1;entryX=0;entryY=0.25;entryDx=0;entryDy=0;fillColor=#f5f5f5;strokeColor=#666666;" parent="1" edge="1">
                    <mxGeometry relative="1" as="geometry">
                        <mxPoint x="360" y="570" as="sourcePoint"/>
                        <mxPoint x="560" y="570.02" as="targetPoint"/>
                        <Array as="points">
                            <mxPoint x="510.03" y="570.05"/>
                            <mxPoint x="510.03" y="570.05"/>
                        </Array>
                    </mxGeometry>
                </mxCell>
                <mxCell id="r6kBSlFc_4V3o2OgbTSe-1" value="" style="edgeStyle=orthogonalEdgeStyle;rounded=0;orthogonalLoop=1;jettySize=auto;html=1;entryX=0;entryY=0.25;entryDx=0;entryDy=0;fillColor=#f5f5f5;strokeColor=#666666;" parent="1" target="n6aOTrb65r66QteSUWzc-41" edge="1">
                    <mxGeometry relative="1" as="geometry">
                        <mxPoint x="280" y="410" as="sourcePoint"/>
                        <mxPoint x="480" y="410" as="targetPoint"/>
                        <Array as="points"/>
                    </mxGeometry>
                </mxCell>
                <mxCell id="r6kBSlFc_4V3o2OgbTSe-2" value="" style="edgeStyle=orthogonalEdgeStyle;rounded=0;orthogonalLoop=1;jettySize=auto;html=1;exitX=0;exitY=0.75;exitDx=0;exitDy=0;fillColor=#f5f5f5;strokeColor=#666666;" parent="1" source="n6aOTrb65r66QteSUWzc-41" edge="1">
                    <mxGeometry relative="1" as="geometry">
                        <mxPoint x="480" y="430" as="sourcePoint"/>
                        <mxPoint x="280" y="430" as="targetPoint"/>
                        <Array as="points"/>
                    </mxGeometry>
                </mxCell>
                <mxCell id="r6kBSlFc_4V3o2OgbTSe-5" value="" style="edgeStyle=orthogonalEdgeStyle;rounded=0;orthogonalLoop=1;jettySize=auto;html=1;exitX=0;exitY=0.75;exitDx=0;exitDy=0;fillColor=#f5f5f5;strokeColor=#666666;" parent="1" edge="1">
                    <mxGeometry relative="1" as="geometry">
                        <mxPoint x="640" y="349.62" as="sourcePoint"/>
                        <mxPoint x="520" y="349.3800000000002" as="targetPoint"/>
                        <Array as="points">
                            <mxPoint x="540" y="349.62"/>
                        </Array>
                    </mxGeometry>
                </mxCell>
                <mxCell id="r6kBSlFc_4V3o2OgbTSe-6" value="" style="edgeStyle=orthogonalEdgeStyle;rounded=0;orthogonalLoop=1;jettySize=auto;html=1;entryX=0;entryY=0.25;entryDx=0;entryDy=0;exitX=1;exitY=0.25;exitDx=0;exitDy=0;fillColor=#f5f5f5;strokeColor=#666666;" parent="1" edge="1">
                    <mxGeometry relative="1" as="geometry">
                        <mxPoint x="520" y="329.62" as="sourcePoint"/>
                        <mxPoint x="640" y="329.62" as="targetPoint"/>
                        <Array as="points">
                            <mxPoint x="530" y="329.62"/>
                            <mxPoint x="530" y="329.62"/>
                        </Array>
                    </mxGeometry>
                </mxCell>
                <mxCell id="r6kBSlFc_4V3o2OgbTSe-8" value="" style="edgeStyle=orthogonalEdgeStyle;rounded=0;orthogonalLoop=1;jettySize=auto;html=1;entryX=0;entryY=0.25;entryDx=0;entryDy=0;fillColor=#f5f5f5;strokeColor=#666666;" parent="1" target="n6aOTrb65r66QteSUWzc-30" edge="1">
                    <mxGeometry relative="1" as="geometry">
                        <mxPoint x="120" y="330" as="sourcePoint"/>
                        <mxPoint x="240" y="329.62" as="targetPoint"/>
                        <Array as="points"/>
                    </mxGeometry>
                </mxCell>
                <mxCell id="r6kBSlFc_4V3o2OgbTSe-81" value="" style="whiteSpace=wrap;html=1;aspect=fixed;fillColor=#f5f5f5;strokeColor=#666666;fontColor=#333333;" parent="1" vertex="1">
                    <mxGeometry x="160" y="80" width="40" height="40" as="geometry"/>
                </mxCell>
                <mxCell id="r6kBSlFc_4V3o2OgbTSe-82" value="" style="whiteSpace=wrap;html=1;aspect=fixed;fillColor=#f5f5f5;strokeColor=#666666;fontColor=#333333;" parent="1" vertex="1">
                    <mxGeometry x="240" y="80" width="40" height="40" as="geometry"/>
                </mxCell>
                <mxCell id="r6kBSlFc_4V3o2OgbTSe-83" value="" style="whiteSpace=wrap;html=1;aspect=fixed;fillColor=#f5f5f5;strokeColor=#666666;fontColor=#333333;" parent="1" vertex="1">
                    <mxGeometry x="320" y="80" width="40" height="40" as="geometry"/>
                </mxCell>
                <mxCell id="r6kBSlFc_4V3o2OgbTSe-84" value="" style="whiteSpace=wrap;html=1;aspect=fixed;fillColor=#f5f5f5;strokeColor=#666666;fontColor=#333333;" parent="1" vertex="1">
                    <mxGeometry x="400" y="80" width="40" height="40" as="geometry"/>
                </mxCell>
                <mxCell id="r6kBSlFc_4V3o2OgbTSe-89" value="Col 1" style="whiteSpace=wrap;html=1;aspect=fixed;fillColor=#f5f5f5;strokeColor=#666666;fontColor=#333333;" parent="1" vertex="1">
                    <mxGeometry x="160" y="80" width="40" height="40" as="geometry"/>
                </mxCell>
                <mxCell id="r6kBSlFc_4V3o2OgbTSe-90" value="Col 2" style="whiteSpace=wrap;html=1;aspect=fixed;fillColor=#f5f5f5;strokeColor=#666666;fontColor=#333333;" parent="1" vertex="1">
                    <mxGeometry x="240" y="80" width="40" height="40" as="geometry"/>
                </mxCell>
                <mxCell id="r6kBSlFc_4V3o2OgbTSe-91" value="Col 3" style="whiteSpace=wrap;html=1;aspect=fixed;fillColor=#f5f5f5;strokeColor=#666666;fontColor=#333333;" parent="1" vertex="1">
                    <mxGeometry x="320" y="80" width="40" height="40" as="geometry"/>
                </mxCell>
                <mxCell id="r6kBSlFc_4V3o2OgbTSe-92" value="Col 4" style="whiteSpace=wrap;html=1;aspect=fixed;fillColor=#f5f5f5;strokeColor=#666666;fontColor=#333333;" parent="1" vertex="1">
                    <mxGeometry x="400" y="80" width="40" height="40" as="geometry"/>
                </mxCell>
                <mxCell id="PerQUS9CYH5TFbMhpdjl-2" value="" style="endArrow=classic;html=1;entryX=0;entryY=0.25;entryDx=0;entryDy=0;" parent="1" target="n6aOTrb65r66QteSUWzc-1" edge="1">
                    <mxGeometry width="50" height="50" relative="1" as="geometry">
                        <mxPoint x="20" y="90" as="sourcePoint"/>
                        <mxPoint x="400" y="280" as="targetPoint"/>
                    </mxGeometry>
                </mxCell>
                <mxCell id="PerQUS9CYH5TFbMhpdjl-3" value="" style="endArrow=none;html=1;entryX=0;entryY=0.75;entryDx=0;entryDy=0;" parent="1" target="n6aOTrb65r66QteSUWzc-1" edge="1">
                    <mxGeometry width="50" height="50" relative="1" as="geometry">
                        <mxPoint x="20" y="110" as="sourcePoint"/>
                        <mxPoint x="400" y="280" as="targetPoint"/>
                    </mxGeometry>
                </mxCell>
                <mxCell id="PerQUS9CYH5TFbMhpdjl-20" value="" style="endArrow=classic;html=1;entryX=0.75;entryY=0;entryDx=0;entryDy=0;" parent="1" target="n6aOTrb65r66QteSUWzc-1" edge="1">
                    <mxGeometry width="50" height="50" relative="1" as="geometry">
                        <mxPoint x="110" y="20" as="sourcePoint"/>
                        <mxPoint x="400" y="180" as="targetPoint"/>
                    </mxGeometry>
                </mxCell>
                <mxCell id="PerQUS9CYH5TFbMhpdjl-22" value="" style="endArrow=none;html=1;entryX=0.25;entryY=0;entryDx=0;entryDy=0;" parent="1" target="n6aOTrb65r66QteSUWzc-1" edge="1">
                    <mxGeometry width="50" height="50" relative="1" as="geometry">
                        <mxPoint x="90" y="20" as="sourcePoint"/>
                        <mxPoint x="400" y="180" as="targetPoint"/>
                    </mxGeometry>
                </mxCell>
                <mxCell id="PerQUS9CYH5TFbMhpdjl-49" value="" style="endArrow=classic;html=1;entryX=0.75;entryY=0;entryDx=0;entryDy=0;fillColor=#f5f5f5;strokeColor=#666666;" parent="1" edge="1">
                    <mxGeometry width="50" height="50" relative="1" as="geometry">
                        <mxPoint x="189.5" y="20" as="sourcePoint"/>
                        <mxPoint x="189.5" y="80" as="targetPoint"/>
                    </mxGeometry>
                </mxCell>
                <mxCell id="PerQUS9CYH5TFbMhpdjl-50" value="" style="endArrow=none;html=1;entryX=0.25;entryY=0;entryDx=0;entryDy=0;fillColor=#f5f5f5;strokeColor=#666666;" parent="1" edge="1">
                    <mxGeometry width="50" height="50" relative="1" as="geometry">
                        <mxPoint x="169.5" y="20" as="sourcePoint"/>
                        <mxPoint x="169.5" y="80" as="targetPoint"/>
                    </mxGeometry>
                </mxCell>
                <mxCell id="PerQUS9CYH5TFbMhpdjl-51" value="" style="endArrow=classic;html=1;entryX=0.75;entryY=0;entryDx=0;entryDy=0;fillColor=#f5f5f5;strokeColor=#666666;" parent="1" edge="1">
                    <mxGeometry width="50" height="50" relative="1" as="geometry">
                        <mxPoint x="269.5" y="20" as="sourcePoint"/>
                        <mxPoint x="269.5" y="80" as="targetPoint"/>
                    </mxGeometry>
                </mxCell>
                <mxCell id="PerQUS9CYH5TFbMhpdjl-52" value="" style="endArrow=none;html=1;entryX=0.25;entryY=0;entryDx=0;entryDy=0;fillColor=#f5f5f5;strokeColor=#666666;" parent="1" edge="1">
                    <mxGeometry width="50" height="50" relative="1" as="geometry">
                        <mxPoint x="249.5" y="20" as="sourcePoint"/>
                        <mxPoint x="249.5" y="80" as="targetPoint"/>
                    </mxGeometry>
                </mxCell>
                <mxCell id="PerQUS9CYH5TFbMhpdjl-53" value="" style="endArrow=classic;html=1;entryX=0.75;entryY=0;entryDx=0;entryDy=0;fillColor=#f5f5f5;strokeColor=#666666;" parent="1" edge="1">
                    <mxGeometry width="50" height="50" relative="1" as="geometry">
                        <mxPoint x="349.5" y="20" as="sourcePoint"/>
                        <mxPoint x="349.5" y="80" as="targetPoint"/>
                    </mxGeometry>
                </mxCell>
                <mxCell id="PerQUS9CYH5TFbMhpdjl-54" value="" style="endArrow=none;html=1;entryX=0.25;entryY=0;entryDx=0;entryDy=0;fillColor=#f5f5f5;strokeColor=#666666;" parent="1" edge="1">
                    <mxGeometry width="50" height="50" relative="1" as="geometry">
                        <mxPoint x="329.5" y="20" as="sourcePoint"/>
                        <mxPoint x="329.5" y="80" as="targetPoint"/>
                    </mxGeometry>
                </mxCell>
                <mxCell id="PerQUS9CYH5TFbMhpdjl-55" value="" style="endArrow=classic;html=1;entryX=0.75;entryY=0;entryDx=0;entryDy=0;fillColor=#f5f5f5;strokeColor=#666666;" parent="1" edge="1">
                    <mxGeometry width="50" height="50" relative="1" as="geometry">
                        <mxPoint x="429.5" y="20" as="sourcePoint"/>
                        <mxPoint x="429.5" y="80" as="targetPoint"/>
                    </mxGeometry>
                </mxCell>
                <mxCell id="PerQUS9CYH5TFbMhpdjl-56" value="" style="endArrow=none;html=1;entryX=0.25;entryY=0;entryDx=0;entryDy=0;fillColor=#f5f5f5;strokeColor=#666666;" parent="1" edge="1">
                    <mxGeometry width="50" height="50" relative="1" as="geometry">
                        <mxPoint x="409.5" y="20" as="sourcePoint"/>
                        <mxPoint x="409.5" y="80" as="targetPoint"/>
                    </mxGeometry>
                </mxCell>
                <mxCell id="PerQUS9CYH5TFbMhpdjl-57" value="" style="endArrow=classic;html=1;entryX=0.75;entryY=0;entryDx=0;entryDy=0;fillColor=#f5f5f5;strokeColor=#666666;" parent="1" edge="1">
                    <mxGeometry width="50" height="50" relative="1" as="geometry">
                        <mxPoint x="509.5" y="20" as="sourcePoint"/>
                        <mxPoint x="509.5" y="80" as="targetPoint"/>
                    </mxGeometry>
                </mxCell>
                <mxCell id="PerQUS9CYH5TFbMhpdjl-58" value="" style="endArrow=none;html=1;entryX=0.25;entryY=0;entryDx=0;entryDy=0;fillColor=#f5f5f5;strokeColor=#666666;" parent="1" edge="1">
                    <mxGeometry width="50" height="50" relative="1" as="geometry">
                        <mxPoint x="489.5" y="20" as="sourcePoint"/>
                        <mxPoint x="489.5" y="80" as="targetPoint"/>
                    </mxGeometry>
                </mxCell>
                <mxCell id="PerQUS9CYH5TFbMhpdjl-59" value="" style="endArrow=classic;html=1;entryX=0.75;entryY=0;entryDx=0;entryDy=0;" parent="1" edge="1">
                    <mxGeometry width="50" height="50" relative="1" as="geometry">
                        <mxPoint x="589.5" y="20" as="sourcePoint"/>
                        <mxPoint x="589.5" y="80" as="targetPoint"/>
                    </mxGeometry>
                </mxCell>
                <mxCell id="PerQUS9CYH5TFbMhpdjl-60" value="" style="endArrow=none;html=1;entryX=0.25;entryY=0;entryDx=0;entryDy=0;" parent="1" edge="1">
                    <mxGeometry width="50" height="50" relative="1" as="geometry">
                        <mxPoint x="569.5" y="20" as="sourcePoint"/>
                        <mxPoint x="569.5" y="80" as="targetPoint"/>
                    </mxGeometry>
                </mxCell>
                <mxCell id="PerQUS9CYH5TFbMhpdjl-61" value="" style="endArrow=classic;html=1;entryX=0.75;entryY=0;entryDx=0;entryDy=0;fillColor=#f5f5f5;strokeColor=#666666;" parent="1" edge="1">
                    <mxGeometry width="50" height="50" relative="1" as="geometry">
                        <mxPoint x="669.5" y="20" as="sourcePoint"/>
                        <mxPoint x="669.5" y="80" as="targetPoint"/>
                    </mxGeometry>
                </mxCell>
                <mxCell id="PerQUS9CYH5TFbMhpdjl-62" value="" style="endArrow=none;html=1;entryX=0.25;entryY=0;entryDx=0;entryDy=0;fillColor=#f5f5f5;strokeColor=#666666;" parent="1" edge="1">
                    <mxGeometry width="50" height="50" relative="1" as="geometry">
                        <mxPoint x="649.5" y="20" as="sourcePoint"/>
                        <mxPoint x="649.5" y="80" as="targetPoint"/>
                    </mxGeometry>
                </mxCell>
                <mxCell id="PerQUS9CYH5TFbMhpdjl-63" value="" style="endArrow=none;html=1;entryX=1;entryY=0.25;entryDx=0;entryDy=0;" parent="1" target="n6aOTrb65r66QteSUWzc-9" edge="1">
                    <mxGeometry width="50" height="50" relative="1" as="geometry">
                        <mxPoint x="740" y="90" as="sourcePoint"/>
                        <mxPoint x="400" y="160" as="targetPoint"/>
                    </mxGeometry>
                </mxCell>
                <mxCell id="PerQUS9CYH5TFbMhpdjl-64" value="" style="endArrow=classic;html=1;entryX=1;entryY=0.75;entryDx=0;entryDy=0;" parent="1" target="n6aOTrb65r66QteSUWzc-9" edge="1">
                    <mxGeometry width="50" height="50" relative="1" as="geometry">
                        <mxPoint x="740" y="110" as="sourcePoint"/>
                        <mxPoint x="400" y="160" as="targetPoint"/>
                    </mxGeometry>
                </mxCell>
                <mxCell id="PerQUS9CYH5TFbMhpdjl-65" value="" style="endArrow=none;html=1;entryX=1;entryY=0.25;entryDx=0;entryDy=0;fillColor=#f5f5f5;strokeColor=#666666;" parent="1" edge="1">
                    <mxGeometry width="50" height="50" relative="1" as="geometry">
                        <mxPoint x="740" y="169.5" as="sourcePoint"/>
                        <mxPoint x="680" y="169.5" as="targetPoint"/>
                    </mxGeometry>
                </mxCell>
                <mxCell id="PerQUS9CYH5TFbMhpdjl-66" value="" style="endArrow=classic;html=1;entryX=1;entryY=0.75;entryDx=0;entryDy=0;fillColor=#f5f5f5;strokeColor=#666666;" parent="1" edge="1">
                    <mxGeometry width="50" height="50" relative="1" as="geometry">
                        <mxPoint x="740" y="189.5" as="sourcePoint"/>
                        <mxPoint x="680" y="189.5" as="targetPoint"/>
                    </mxGeometry>
                </mxCell>
                <mxCell id="PerQUS9CYH5TFbMhpdjl-67" value="" style="endArrow=none;html=1;entryX=1;entryY=0.25;entryDx=0;entryDy=0;fillColor=#f5f5f5;strokeColor=#666666;" parent="1" edge="1">
                    <mxGeometry width="50" height="50" relative="1" as="geometry">
                        <mxPoint x="740" y="329.5" as="sourcePoint"/>
                        <mxPoint x="680" y="329.5" as="targetPoint"/>
                    </mxGeometry>
                </mxCell>
                <mxCell id="PerQUS9CYH5TFbMhpdjl-68" value="" style="endArrow=classic;html=1;entryX=1;entryY=0.75;entryDx=0;entryDy=0;fillColor=#f5f5f5;strokeColor=#666666;" parent="1" edge="1">
                    <mxGeometry width="50" height="50" relative="1" as="geometry">
                        <mxPoint x="740" y="349.5" as="sourcePoint"/>
                        <mxPoint x="680" y="349.5" as="targetPoint"/>
                    </mxGeometry>
                </mxCell>
                <mxCell id="PerQUS9CYH5TFbMhpdjl-69" value="" style="endArrow=none;html=1;entryX=1;entryY=0.25;entryDx=0;entryDy=0;fillColor=#f5f5f5;strokeColor=#666666;" parent="1" edge="1">
                    <mxGeometry width="50" height="50" relative="1" as="geometry">
                        <mxPoint x="740" y="409.5" as="sourcePoint"/>
                        <mxPoint x="680" y="409.5" as="targetPoint"/>
                    </mxGeometry>
                </mxCell>
                <mxCell id="PerQUS9CYH5TFbMhpdjl-70" value="" style="endArrow=classic;html=1;entryX=1;entryY=0.75;entryDx=0;entryDy=0;fillColor=#f5f5f5;strokeColor=#666666;" parent="1" edge="1">
                    <mxGeometry width="50" height="50" relative="1" as="geometry">
                        <mxPoint x="740" y="429.5" as="sourcePoint"/>
                        <mxPoint x="680" y="429.5" as="targetPoint"/>
                    </mxGeometry>
                </mxCell>
                <mxCell id="PerQUS9CYH5TFbMhpdjl-71" value="" style="endArrow=none;html=1;fillColor=#f5f5f5;strokeColor=#666666;" parent="1" edge="1">
                    <mxGeometry width="50" height="50" relative="1" as="geometry">
                        <mxPoint x="740" y="570" as="sourcePoint"/>
                        <mxPoint x="600" y="570" as="targetPoint"/>
                    </mxGeometry>
                </mxCell>
                <mxCell id="PerQUS9CYH5TFbMhpdjl-72" value="" style="endArrow=classic;html=1;fillColor=#f5f5f5;strokeColor=#666666;" parent="1" edge="1">
                    <mxGeometry width="50" height="50" relative="1" as="geometry">
                        <mxPoint x="740" y="590" as="sourcePoint"/>
                        <mxPoint x="600" y="590" as="targetPoint"/>
                    </mxGeometry>
                </mxCell>
                <mxCell id="PerQUS9CYH5TFbMhpdjl-75" value="" style="endArrow=none;html=1;fillColor=#f5f5f5;strokeColor=#666666;" parent="1" edge="1">
                    <mxGeometry width="50" height="50" relative="1" as="geometry">
                        <mxPoint x="740" y="729.58" as="sourcePoint"/>
                        <mxPoint x="600" y="729.58" as="targetPoint"/>
                    </mxGeometry>
                </mxCell>
                <mxCell id="PerQUS9CYH5TFbMhpdjl-76" value="" style="endArrow=classic;html=1;fillColor=#f5f5f5;strokeColor=#666666;" parent="1" edge="1">
                    <mxGeometry width="50" height="50" relative="1" as="geometry">
                        <mxPoint x="740" y="749.58" as="sourcePoint"/>
                        <mxPoint x="600" y="749.58" as="targetPoint"/>
                    </mxGeometry>
                </mxCell>
                <mxCell id="PerQUS9CYH5TFbMhpdjl-77" value="" style="endArrow=none;html=1;fillColor=#f5f5f5;strokeColor=#666666;" parent="1" edge="1">
                    <mxGeometry width="50" height="50" relative="1" as="geometry">
                        <mxPoint x="740" y="249.57999999999993" as="sourcePoint"/>
                        <mxPoint x="600" y="249.57999999999993" as="targetPoint"/>
                    </mxGeometry>
                </mxCell>
                <mxCell id="PerQUS9CYH5TFbMhpdjl-78" value="" style="endArrow=classic;html=1;fillColor=#f5f5f5;strokeColor=#666666;" parent="1" edge="1">
                    <mxGeometry width="50" height="50" relative="1" as="geometry">
                        <mxPoint x="740" y="269.5799999999999" as="sourcePoint"/>
                        <mxPoint x="600" y="269.5799999999999" as="targetPoint"/>
                    </mxGeometry>
                </mxCell>
                <mxCell id="PerQUS9CYH5TFbMhpdjl-79" value="" style="endArrow=none;html=1;fillColor=#f5f5f5;strokeColor=#666666;" parent="1" edge="1">
                    <mxGeometry width="50" height="50" relative="1" as="geometry">
                        <mxPoint x="740" y="650" as="sourcePoint"/>
                        <mxPoint x="520" y="650" as="targetPoint"/>
                    </mxGeometry>
                </mxCell>
                <mxCell id="PerQUS9CYH5TFbMhpdjl-80" value="" style="endArrow=classic;html=1;fillColor=#f5f5f5;strokeColor=#666666;" parent="1" edge="1">
                    <mxGeometry width="50" height="50" relative="1" as="geometry">
                        <mxPoint x="740" y="670" as="sourcePoint"/>
                        <mxPoint x="520" y="670" as="targetPoint"/>
                    </mxGeometry>
                </mxCell>
                <mxCell id="PerQUS9CYH5TFbMhpdjl-81" value="" style="endArrow=none;html=1;fillColor=#f5f5f5;strokeColor=#666666;" parent="1" edge="1">
                    <mxGeometry width="50" height="50" relative="1" as="geometry">
                        <mxPoint x="740" y="490" as="sourcePoint"/>
                        <mxPoint x="440" y="490" as="targetPoint"/>
                    </mxGeometry>
                </mxCell>
                <mxCell id="PerQUS9CYH5TFbMhpdjl-82" value="" style="endArrow=classic;html=1;entryX=1;entryY=0.75;entryDx=0;entryDy=0;fillColor=#f5f5f5;strokeColor=#666666;" parent="1" target="n6aOTrb65r66QteSUWzc-46" edge="1">
                    <mxGeometry width="50" height="50" relative="1" as="geometry">
                        <mxPoint x="740" y="510" as="sourcePoint"/>
                        <mxPoint x="440" y="509.5799999999999" as="targetPoint"/>
                    </mxGeometry>
                </mxCell>
                <mxCell id="PerQUS9CYH5TFbMhpdjl-83" value="" style="endArrow=none;html=1;entryX=0.75;entryY=1;entryDx=0;entryDy=0;fillColor=#f5f5f5;strokeColor=#666666;" parent="1" target="n6aOTrb65r66QteSUWzc-60" edge="1">
                    <mxGeometry width="50" height="50" relative="1" as="geometry">
                        <mxPoint x="270" y="820" as="sourcePoint"/>
                        <mxPoint x="450" y="660" as="targetPoint"/>
                    </mxGeometry>
                </mxCell>
                <mxCell id="PerQUS9CYH5TFbMhpdjl-84" value="" style="endArrow=classic;html=1;entryX=0.25;entryY=1;entryDx=0;entryDy=0;fillColor=#f5f5f5;strokeColor=#666666;" parent="1" target="n6aOTrb65r66QteSUWzc-60" edge="1">
                    <mxGeometry width="50" height="50" relative="1" as="geometry">
                        <mxPoint x="250" y="820" as="sourcePoint"/>
                        <mxPoint x="450" y="660" as="targetPoint"/>
                    </mxGeometry>
                </mxCell>
                <mxCell id="PerQUS9CYH5TFbMhpdjl-85" value="" style="endArrow=none;html=1;entryX=0.75;entryY=1;entryDx=0;entryDy=0;fillColor=#f5f5f5;strokeColor=#666666;" parent="1" edge="1">
                    <mxGeometry width="50" height="50" relative="1" as="geometry">
                        <mxPoint x="349.58" y="820" as="sourcePoint"/>
                        <mxPoint x="349.58" y="680" as="targetPoint"/>
                    </mxGeometry>
                </mxCell>
                <mxCell id="PerQUS9CYH5TFbMhpdjl-86" value="" style="endArrow=classic;html=1;entryX=0.25;entryY=1;entryDx=0;entryDy=0;fillColor=#f5f5f5;strokeColor=#666666;" parent="1" edge="1">
                    <mxGeometry width="50" height="50" relative="1" as="geometry">
                        <mxPoint x="329.58" y="820" as="sourcePoint"/>
                        <mxPoint x="329.58" y="680" as="targetPoint"/>
                    </mxGeometry>
                </mxCell>
                <mxCell id="PerQUS9CYH5TFbMhpdjl-87" value="" style="endArrow=none;html=1;entryX=0.75;entryY=1;entryDx=0;entryDy=0;fillColor=#f5f5f5;strokeColor=#666666;" parent="1" edge="1">
                    <mxGeometry width="50" height="50" relative="1" as="geometry">
                        <mxPoint x="509.58000000000004" y="820" as="sourcePoint"/>
                        <mxPoint x="509.58000000000004" y="680" as="targetPoint"/>
                    </mxGeometry>
                </mxCell>
                <mxCell id="PerQUS9CYH5TFbMhpdjl-88" value="" style="endArrow=classic;html=1;entryX=0.25;entryY=1;entryDx=0;entryDy=0;fillColor=#f5f5f5;strokeColor=#666666;" parent="1" edge="1">
                    <mxGeometry width="50" height="50" relative="1" as="geometry">
                        <mxPoint x="489.58000000000004" y="820" as="sourcePoint"/>
                        <mxPoint x="489.58000000000004" y="680" as="targetPoint"/>
                    </mxGeometry>
                </mxCell>
                <mxCell id="PerQUS9CYH5TFbMhpdjl-89" value="" style="endArrow=classic;html=1;entryX=0.25;entryY=1;entryDx=0;entryDy=0;fillColor=#f5f5f5;strokeColor=#666666;" parent="1" target="n6aOTrb65r66QteSUWzc-67" edge="1">
                    <mxGeometry width="50" height="50" relative="1" as="geometry">
                        <mxPoint x="170" y="820" as="sourcePoint"/>
                        <mxPoint x="450" y="700" as="targetPoint"/>
                    </mxGeometry>
                </mxCell>
                <mxCell id="PerQUS9CYH5TFbMhpdjl-90" value="" style="endArrow=none;html=1;entryX=0.75;entryY=1;entryDx=0;entryDy=0;fillColor=#f5f5f5;strokeColor=#666666;" parent="1" target="n6aOTrb65r66QteSUWzc-67" edge="1">
                    <mxGeometry width="50" height="50" relative="1" as="geometry">
                        <mxPoint x="190" y="820" as="sourcePoint"/>
                        <mxPoint x="450" y="700" as="targetPoint"/>
                    </mxGeometry>
                </mxCell>
                <mxCell id="PerQUS9CYH5TFbMhpdjl-93" value="" style="endArrow=classic;html=1;entryX=0.25;entryY=1;entryDx=0;entryDy=0;" parent="1" edge="1">
                    <mxGeometry width="50" height="50" relative="1" as="geometry">
                        <mxPoint x="89.58" y="820" as="sourcePoint"/>
                        <mxPoint x="89.58" y="760" as="targetPoint"/>
                    </mxGeometry>
                </mxCell>
                <mxCell id="PerQUS9CYH5TFbMhpdjl-94" value="" style="endArrow=none;html=1;entryX=0.75;entryY=1;entryDx=0;entryDy=0;" parent="1" edge="1">
                    <mxGeometry width="50" height="50" relative="1" as="geometry">
                        <mxPoint x="109.58" y="820" as="sourcePoint"/>
                        <mxPoint x="109.58" y="760" as="targetPoint"/>
                    </mxGeometry>
                </mxCell>
                <mxCell id="PerQUS9CYH5TFbMhpdjl-95" value="" style="endArrow=classic;html=1;entryX=0.25;entryY=1;entryDx=0;entryDy=0;fillColor=#f5f5f5;strokeColor=#666666;" parent="1" edge="1">
                    <mxGeometry width="50" height="50" relative="1" as="geometry">
                        <mxPoint x="409.58000000000004" y="820" as="sourcePoint"/>
                        <mxPoint x="409.58000000000004" y="760" as="targetPoint"/>
                    </mxGeometry>
                </mxCell>
                <mxCell id="PerQUS9CYH5TFbMhpdjl-96" value="" style="endArrow=none;html=1;entryX=0.75;entryY=1;entryDx=0;entryDy=0;fillColor=#f5f5f5;strokeColor=#666666;" parent="1" edge="1">
                    <mxGeometry width="50" height="50" relative="1" as="geometry">
                        <mxPoint x="429.58000000000004" y="820" as="sourcePoint"/>
                        <mxPoint x="429.58000000000004" y="760" as="targetPoint"/>
                    </mxGeometry>
                </mxCell>
                <mxCell id="PerQUS9CYH5TFbMhpdjl-97" value="" style="endArrow=classic;html=1;entryX=0.25;entryY=1;entryDx=0;entryDy=0;" parent="1" edge="1">
                    <mxGeometry width="50" height="50" relative="1" as="geometry">
                        <mxPoint x="569.5799999999999" y="820" as="sourcePoint"/>
                        <mxPoint x="569.5799999999999" y="760" as="targetPoint"/>
                    </mxGeometry>
                </mxCell>
                <mxCell id="PerQUS9CYH5TFbMhpdjl-98" value="" style="endArrow=none;html=1;entryX=0.75;entryY=1;entryDx=0;entryDy=0;" parent="1" edge="1">
                    <mxGeometry width="50" height="50" relative="1" as="geometry">
                        <mxPoint x="589.5799999999999" y="820" as="sourcePoint"/>
                        <mxPoint x="589.5799999999999" y="760" as="targetPoint"/>
                    </mxGeometry>
                </mxCell>
                <mxCell id="PerQUS9CYH5TFbMhpdjl-99" value="" style="endArrow=classic;html=1;entryX=0.25;entryY=1;entryDx=0;entryDy=0;fillColor=#f5f5f5;strokeColor=#666666;" parent="1" target="n6aOTrb65r66QteSUWzc-41" edge="1">
                    <mxGeometry width="50" height="50" relative="1" as="geometry">
                        <mxPoint x="650" y="820" as="sourcePoint"/>
                        <mxPoint x="540" y="580" as="targetPoint"/>
                    </mxGeometry>
                </mxCell>
                <mxCell id="PerQUS9CYH5TFbMhpdjl-100" value="" style="endArrow=none;html=1;entryX=0.75;entryY=1;entryDx=0;entryDy=0;fillColor=#f5f5f5;strokeColor=#666666;" parent="1" target="n6aOTrb65r66QteSUWzc-41" edge="1">
                    <mxGeometry width="50" height="50" relative="1" as="geometry">
                        <mxPoint x="670" y="820" as="sourcePoint"/>
                        <mxPoint x="540" y="640" as="targetPoint"/>
                    </mxGeometry>
                </mxCell>
                <mxCell id="PerQUS9CYH5TFbMhpdjl-101" value="" style="endArrow=classic;html=1;entryX=0;entryY=0.25;entryDx=0;entryDy=0;fillColor=#f5f5f5;strokeColor=#666666;" parent="1" edge="1">
                    <mxGeometry width="50" height="50" relative="1" as="geometry">
                        <mxPoint x="20" y="169.57999999999998" as="sourcePoint"/>
                        <mxPoint x="80" y="169.57999999999998" as="targetPoint"/>
                    </mxGeometry>
                </mxCell>
                <mxCell id="PerQUS9CYH5TFbMhpdjl-102" value="" style="endArrow=none;html=1;entryX=0;entryY=0.75;entryDx=0;entryDy=0;fillColor=#f5f5f5;strokeColor=#666666;" parent="1" edge="1">
                    <mxGeometry width="50" height="50" relative="1" as="geometry">
                        <mxPoint x="20" y="189.57999999999998" as="sourcePoint"/>
                        <mxPoint x="80" y="189.57999999999998" as="targetPoint"/>
                    </mxGeometry>
                </mxCell>
                <mxCell id="PerQUS9CYH5TFbMhpdjl-103" value="" style="endArrow=classic;html=1;entryX=0;entryY=0.25;entryDx=0;entryDy=0;fillColor=#f5f5f5;strokeColor=#666666;" parent="1" edge="1">
                    <mxGeometry width="50" height="50" relative="1" as="geometry">
                        <mxPoint x="20" y="249.58" as="sourcePoint"/>
                        <mxPoint x="80" y="249.58" as="targetPoint"/>
                    </mxGeometry>
                </mxCell>
                <mxCell id="PerQUS9CYH5TFbMhpdjl-104" value="" style="endArrow=none;html=1;entryX=0;entryY=0.75;entryDx=0;entryDy=0;fillColor=#f5f5f5;strokeColor=#666666;" parent="1" edge="1">
                    <mxGeometry width="50" height="50" relative="1" as="geometry">
                        <mxPoint x="20" y="269.58000000000004" as="sourcePoint"/>
                        <mxPoint x="80" y="269.58000000000004" as="targetPoint"/>
                    </mxGeometry>
                </mxCell>
                <mxCell id="PerQUS9CYH5TFbMhpdjl-107" value="" style="endArrow=classic;html=1;entryX=0;entryY=0.25;entryDx=0;entryDy=0;fillColor=#f5f5f5;strokeColor=#666666;" parent="1" edge="1">
                    <mxGeometry width="50" height="50" relative="1" as="geometry">
                        <mxPoint x="20" y="329.58000000000004" as="sourcePoint"/>
                        <mxPoint x="80" y="329.58000000000004" as="targetPoint"/>
                    </mxGeometry>
                </mxCell>
                <mxCell id="PerQUS9CYH5TFbMhpdjl-108" value="" style="endArrow=none;html=1;entryX=0;entryY=0.75;entryDx=0;entryDy=0;fillColor=#f5f5f5;strokeColor=#666666;" parent="1" edge="1">
                    <mxGeometry width="50" height="50" relative="1" as="geometry">
                        <mxPoint x="20" y="349.58000000000004" as="sourcePoint"/>
                        <mxPoint x="80" y="349.58000000000004" as="targetPoint"/>
                    </mxGeometry>
                </mxCell>
                <mxCell id="PerQUS9CYH5TFbMhpdjl-109" value="" style="endArrow=classic;html=1;entryX=0;entryY=0.25;entryDx=0;entryDy=0;fillColor=#f5f5f5;strokeColor=#666666;" parent="1" edge="1">
                    <mxGeometry width="50" height="50" relative="1" as="geometry">
                        <mxPoint x="20" y="409.58000000000004" as="sourcePoint"/>
                        <mxPoint x="80" y="409.58000000000004" as="targetPoint"/>
                    </mxGeometry>
                </mxCell>
                <mxCell id="PerQUS9CYH5TFbMhpdjl-110" value="" style="endArrow=none;html=1;entryX=0;entryY=0.75;entryDx=0;entryDy=0;fillColor=#f5f5f5;strokeColor=#666666;" parent="1" edge="1">
                    <mxGeometry width="50" height="50" relative="1" as="geometry">
                        <mxPoint x="20" y="429.58000000000004" as="sourcePoint"/>
                        <mxPoint x="80" y="429.58000000000004" as="targetPoint"/>
                    </mxGeometry>
                </mxCell>
                <mxCell id="PerQUS9CYH5TFbMhpdjl-111" value="" style="endArrow=classic;html=1;entryX=0;entryY=0.25;entryDx=0;entryDy=0;fillColor=#f5f5f5;strokeColor=#666666;" parent="1" edge="1">
                    <mxGeometry width="50" height="50" relative="1" as="geometry">
                        <mxPoint x="20" y="489.58000000000004" as="sourcePoint"/>
                        <mxPoint x="80" y="489.58000000000004" as="targetPoint"/>
                    </mxGeometry>
                </mxCell>
                <mxCell id="PerQUS9CYH5TFbMhpdjl-112" value="" style="endArrow=none;html=1;entryX=0;entryY=0.75;entryDx=0;entryDy=0;fillColor=#f5f5f5;strokeColor=#666666;" parent="1" edge="1">
                    <mxGeometry width="50" height="50" relative="1" as="geometry">
                        <mxPoint x="20" y="509.58000000000004" as="sourcePoint"/>
                        <mxPoint x="80" y="509.58000000000004" as="targetPoint"/>
                    </mxGeometry>
                </mxCell>
                <mxCell id="PerQUS9CYH5TFbMhpdjl-113" value="" style="endArrow=classic;html=1;entryX=0;entryY=0.25;entryDx=0;entryDy=0;fillColor=#f5f5f5;strokeColor=#666666;" parent="1" edge="1">
                    <mxGeometry width="50" height="50" relative="1" as="geometry">
                        <mxPoint x="20" y="569.58" as="sourcePoint"/>
                        <mxPoint x="80" y="569.58" as="targetPoint"/>
                    </mxGeometry>
                </mxCell>
                <mxCell id="PerQUS9CYH5TFbMhpdjl-114" value="" style="endArrow=none;html=1;entryX=0;entryY=0.75;entryDx=0;entryDy=0;fillColor=#f5f5f5;strokeColor=#666666;" parent="1" edge="1">
                    <mxGeometry width="50" height="50" relative="1" as="geometry">
                        <mxPoint x="20" y="589.58" as="sourcePoint"/>
                        <mxPoint x="80" y="589.58" as="targetPoint"/>
                    </mxGeometry>
                </mxCell>
                <mxCell id="PerQUS9CYH5TFbMhpdjl-115" value="" style="endArrow=classic;html=1;entryX=0;entryY=0.25;entryDx=0;entryDy=0;fillColor=#f5f5f5;strokeColor=#666666;" parent="1" edge="1">
                    <mxGeometry width="50" height="50" relative="1" as="geometry">
                        <mxPoint x="20" y="649.58" as="sourcePoint"/>
                        <mxPoint x="80" y="649.58" as="targetPoint"/>
                    </mxGeometry>
                </mxCell>
                <mxCell id="PerQUS9CYH5TFbMhpdjl-116" value="" style="endArrow=none;html=1;entryX=0;entryY=0.75;entryDx=0;entryDy=0;fillColor=#f5f5f5;strokeColor=#666666;" parent="1" edge="1">
                    <mxGeometry width="50" height="50" relative="1" as="geometry">
                        <mxPoint x="20" y="669.58" as="sourcePoint"/>
                        <mxPoint x="80" y="669.58" as="targetPoint"/>
                    </mxGeometry>
                </mxCell>
                <mxCell id="PerQUS9CYH5TFbMhpdjl-117" value="" style="endArrow=classic;html=1;entryX=0;entryY=0.25;entryDx=0;entryDy=0;fillColor=#f5f5f5;strokeColor=#666666;" parent="1" edge="1">
                    <mxGeometry width="50" height="50" relative="1" as="geometry">
                        <mxPoint x="20" y="729.5799999999999" as="sourcePoint"/>
                        <mxPoint x="80" y="729.5799999999999" as="targetPoint"/>
                    </mxGeometry>
                </mxCell>
                <mxCell id="PerQUS9CYH5TFbMhpdjl-118" value="" style="endArrow=none;html=1;entryX=0;entryY=0.75;entryDx=0;entryDy=0;fillColor=#f5f5f5;strokeColor=#666666;" parent="1" edge="1">
                    <mxGeometry width="50" height="50" relative="1" as="geometry">
                        <mxPoint x="20" y="749.5799999999999" as="sourcePoint"/>
                        <mxPoint x="80" y="749.5799999999999" as="targetPoint"/>
                    </mxGeometry>
                </mxCell>
                <mxCell id="PerQUS9CYH5TFbMhpdjl-119" value="" style="endArrow=classic;html=1;entryX=1;entryY=0.75;entryDx=0;entryDy=0;exitX=0;exitY=0.75;exitDx=0;exitDy=0;fillColor=#f5f5f5;strokeColor=#666666;" parent="1" source="n6aOTrb65r66QteSUWzc-30" target="n6aOTrb65r66QteSUWzc-26" edge="1">
                    <mxGeometry width="50" height="50" relative="1" as="geometry">
                        <mxPoint x="330" y="360" as="sourcePoint"/>
                        <mxPoint x="380" y="310" as="targetPoint"/>
                    </mxGeometry>
                </mxCell>
            </root>
        </mxGraphModel>
    </diagram>
</mxfile>